STARTFONT 2.1
FONT CascadiaCode-Light.ttf
SIZE 14 75 75
FONTBOUNDINGBOX 14 17 0 -4
CHARS 617
STARTCHAR U0020
ENCODING 32
SWIDTH 1000 0
DWIDTH 8 0
BBX 0 0 0 0
BITMAP
ENDCHAR
STARTCHAR U0021
ENCODING 33
SWIDTH 1000 0
DWIDTH 8 0
BBX 8 10 0 0
BITMAP
08
08
08
08
08
08
08
00
18
18
ENDCHAR
STARTCHAR U0022
ENCODING 34
SWIDTH 1000 0
DWIDTH 8 0
BBX 8 10 0 0
BITMAP
14
14
14
14
00
00
00
00
00
00
ENDCHAR
STARTCHAR U0023
ENCODING 35
SWIDTH 1000 0
DWIDTH 8 0
BBX 8 10 0 0
BITMAP
24
24
24
7E
24
24
7E
24
24
24
ENDCHAR
STARTCHAR U0024
ENCODING 36
SWIDTH 1000 0
DWIDTH 8 0
BBX 8 14 0 -2
BITMAP
08
08
3C
6A
48
68
38
0C
0A
0A
0A
7C
08
08
ENDCHAR
STARTCHAR U0025
ENCODING 37
SWIDTH 1000 0
DWIDTH 8 0
BBX 8 10 0 0
BITMAP
70
88
88
76
08
10
2E
49
09
0E
ENDCHAR
STARTCHAR U0026
ENCODING 38
SWIDTH 1000 0
DWIDTH 8 0
BBX 9 10 0 0
BITMAP
3C00
2200
4000
4000
2000
3200
4A00
8600
4600
7900
ENDCHAR
STARTCHAR U0027
ENCODING 39
SWIDTH 1000 0
DWIDTH 8 0
BBX 8 10 0 0
BITMAP
08
08
08
08
00
00
00
00
00
00
ENDCHAR
STARTCHAR U0028
ENCODING 40
SWIDTH 1000 0
DWIDTH 8 0
BBX 8 13 0 -2
BITMAP
0E
18
10
20
20
20
20
20
20
10
18
0E
00
ENDCHAR
STARTCHAR U0029
ENCODING 41
SWIDTH 1000 0
DWIDTH 8 0
BBX 8 13 0 -2
BITMAP
70
08
04
04
04
04
04
04
04
0C
18
70
00
ENDCHAR
STARTCHAR U002A
ENCODING 42
SWIDTH 1000 0
DWIDTH 8 0
BBX 8 9 0 0
BITMAP
08
08
6E
18
14
24
00
00
00
ENDCHAR
STARTCHAR U002B
ENCODING 43
SWIDTH 1000 0
DWIDTH 8 0
BBX 8 8 0 0
BITMAP
08
08
08
7E
08
08
08
00
ENDCHAR
STARTCHAR U002C
ENCODING 44
SWIDTH 1000 0
DWIDTH 8 0
BBX 8 5 0 -3
BITMAP
08
10
10
10
10
ENDCHAR
STARTCHAR U002D
ENCODING 45
SWIDTH 1000 0
DWIDTH 8 0
BBX 8 5 0 0
BITMAP
7E
00
00
00
00
ENDCHAR
STARTCHAR U002E
ENCODING 46
SWIDTH 1000 0
DWIDTH 8 0
BBX 8 2 0 0
BITMAP
18
18
ENDCHAR
STARTCHAR U002F
ENCODING 47
SWIDTH 1000 0
DWIDTH 8 0
BBX 8 12 0 -2
BITMAP
01
02
02
04
04
08
08
10
10
20
20
40
ENDCHAR
STARTCHAR U0030
ENCODING 48
SWIDTH 1000 0
DWIDTH 8 0
BBX 8 10 0 0
BITMAP
3C
26
42
42
5A
5A
42
42
26
3C
ENDCHAR
STARTCHAR U0031
ENCODING 49
SWIDTH 1000 0
DWIDTH 8 0
BBX 8 10 0 0
BITMAP
38
48
08
08
08
08
08
08
08
7E
ENDCHAR
STARTCHAR U0032
ENCODING 50
SWIDTH 1000 0
DWIDTH 8 0
BBX 8 10 0 0
BITMAP
3C
46
02
02
02
04
0C
18
20
7E
ENDCHAR
STARTCHAR U0033
ENCODING 51
SWIDTH 1000 0
DWIDTH 8 0
BBX 8 10 0 0
BITMAP
3C
42
02
04
38
06
02
02
06
7C
ENDCHAR
STARTCHAR U0034
ENCODING 52
SWIDTH 1000 0
DWIDTH 8 0
BBX 8 10 0 0
BITMAP
04
24
44
44
44
44
44
7F
04
04
ENDCHAR
STARTCHAR U0035
ENCODING 53
SWIDTH 1000 0
DWIDTH 8 0
BBX 8 10 0 0
BITMAP
3E
20
20
20
3E
02
02
42
62
3C
ENDCHAR
STARTCHAR U0036
ENCODING 54
SWIDTH 1000 0
DWIDTH 8 0
BBX 8 10 0 0
BITMAP
0E
30
20
40
7E
42
42
42
62
3C
ENDCHAR
STARTCHAR U0037
ENCODING 55
SWIDTH 1000 0
DWIDTH 8 0
BBX 8 10 0 0
BITMAP
7F
42
42
02
04
04
04
08
08
08
ENDCHAR
STARTCHAR U0038
ENCODING 56
SWIDTH 1000 0
DWIDTH 8 0
BBX 8 10 0 0
BITMAP
3C
62
42
22
3C
62
42
42
42
3C
ENDCHAR
STARTCHAR U0039
ENCODING 57
SWIDTH 1000 0
DWIDTH 8 0
BBX 8 10 0 0
BITMAP
3C
42
42
42
42
3E
02
06
0C
30
ENDCHAR
STARTCHAR U003A
ENCODING 58
SWIDTH 1000 0
DWIDTH 8 0
BBX 8 7 0 0
BITMAP
18
18
00
00
00
18
18
ENDCHAR
STARTCHAR U003B
ENCODING 59
SWIDTH 1000 0
DWIDTH 8 0
BBX 8 10 0 -3
BITMAP
18
18
00
00
00
08
10
10
10
10
ENDCHAR
STARTCHAR U003C
ENCODING 60
SWIDTH 1000 0
DWIDTH 8 0
BBX 8 9 0 0
BITMAP
06
18
60
40
38
06
00
00
00
ENDCHAR
STARTCHAR U003D
ENCODING 61
SWIDTH 1000 0
DWIDTH 8 0
BBX 8 7 0 0
BITMAP
7E
00
00
7E
00
00
00
ENDCHAR
STARTCHAR U003E
ENCODING 62
SWIDTH 1000 0
DWIDTH 8 0
BBX 8 9 0 0
BITMAP
60
18
06
02
0C
70
00
00
00
ENDCHAR
STARTCHAR U003F
ENCODING 63
SWIDTH 1000 0
DWIDTH 8 0
BBX 8 10 0 0
BITMAP
3C
42
02
04
0C
10
10
00
18
18
ENDCHAR
STARTCHAR U0040
ENCODING 64
SWIDTH 1000 0
DWIDTH 8 0
BBX 8 11 0 -2
BITMAP
1C
22
4E
52
52
52
52
56
48
20
1C
ENDCHAR
STARTCHAR U0041
ENCODING 65
SWIDTH 1000 0
DWIDTH 8 0
BBX 8 10 0 0
BITMAP
18
18
14
24
24
24
7E
42
42
41
ENDCHAR
STARTCHAR U0042
ENCODING 66
SWIDTH 1000 0
DWIDTH 8 0
BBX 8 10 0 0
BITMAP
7C
42
42
42
7C
42
41
41
42
7E
ENDCHAR
STARTCHAR U0043
ENCODING 67
SWIDTH 1000 0
DWIDTH 8 0
BBX 8 10 0 0
BITMAP
1E
20
40
40
40
40
40
40
20
1E
ENDCHAR
STARTCHAR U0044
ENCODING 68
SWIDTH 1000 0
DWIDTH 8 0
BBX 8 10 0 0
BITMAP
7C
46
42
42
41
41
41
42
46
7C
ENDCHAR
STARTCHAR U0045
ENCODING 69
SWIDTH 1000 0
DWIDTH 8 0
BBX 8 10 0 0
BITMAP
7E
40
40
40
7C
40
40
40
40
7E
ENDCHAR
STARTCHAR U0046
ENCODING 70
SWIDTH 1000 0
DWIDTH 8 0
BBX 8 10 0 0
BITMAP
7F
40
40
40
40
7E
40
40
40
40
ENDCHAR
STARTCHAR U0047
ENCODING 71
SWIDTH 1000 0
DWIDTH 8 0
BBX 8 10 0 0
BITMAP
1E
60
40
40
40
4E
42
42
62
1E
ENDCHAR
STARTCHAR U0048
ENCODING 72
SWIDTH 1000 0
DWIDTH 8 0
BBX 8 10 0 0
BITMAP
42
42
42
42
7E
42
42
42
42
42
ENDCHAR
STARTCHAR U0049
ENCODING 73
SWIDTH 1000 0
DWIDTH 8 0
BBX 8 10 0 0
BITMAP
7E
08
08
08
08
08
08
08
08
7E
ENDCHAR
STARTCHAR U004A
ENCODING 74
SWIDTH 1000 0
DWIDTH 8 0
BBX 8 10 0 0
BITMAP
1E
02
02
02
02
02
02
42
42
3C
ENDCHAR
STARTCHAR U004B
ENCODING 75
SWIDTH 1000 0
DWIDTH 8 0
BBX 8 10 0 0
BITMAP
42
42
42
42
44
4C
74
46
42
41
ENDCHAR
STARTCHAR U004C
ENCODING 76
SWIDTH 1000 0
DWIDTH 8 0
BBX 8 10 0 0
BITMAP
40
40
40
40
40
40
40
40
40
7E
ENDCHAR
STARTCHAR U004D
ENCODING 77
SWIDTH 1000 0
DWIDTH 8 0
BBX 8 10 0 0
BITMAP
62
66
66
56
5A
5A
42
42
42
42
ENDCHAR
STARTCHAR U004E
ENCODING 78
SWIDTH 1000 0
DWIDTH 8 0
BBX 8 10 0 0
BITMAP
62
62
52
52
52
4A
4A
46
46
42
ENDCHAR
STARTCHAR U004F
ENCODING 79
SWIDTH 1000 0
DWIDTH 8 0
BBX 8 10 0 0
BITMAP
3C
62
42
41
41
41
41
42
62
3C
ENDCHAR
STARTCHAR U0050
ENCODING 80
SWIDTH 1000 0
DWIDTH 8 0
BBX 8 10 0 0
BITMAP
7C
42
42
41
42
42
7C
40
40
40
ENDCHAR
STARTCHAR U0051
ENCODING 81
SWIDTH 1000 0
DWIDTH 8 0
BBX 8 13 0 -3
BITMAP
3C
62
42
41
41
41
41
42
62
3C
08
08
06
ENDCHAR
STARTCHAR U0052
ENCODING 82
SWIDTH 1000 0
DWIDTH 8 0
BBX 8 10 0 0
BITMAP
7C
42
42
42
42
7C
44
44
42
42
ENDCHAR
STARTCHAR U0053
ENCODING 83
SWIDTH 1000 0
DWIDTH 8 0
BBX 8 10 0 0
BITMAP
3C
62
40
60
30
0C
02
02
02
7C
ENDCHAR
STARTCHAR U0054
ENCODING 84
SWIDTH 1000 0
DWIDTH 8 0
BBX 8 10 0 0
BITMAP
7F
08
08
08
08
08
08
08
08
08
ENDCHAR
STARTCHAR U0055
ENCODING 85
SWIDTH 1000 0
DWIDTH 8 0
BBX 8 10 0 0
BITMAP
42
42
42
42
42
42
42
42
62
3C
ENDCHAR
STARTCHAR U0056
ENCODING 86
SWIDTH 1000 0
DWIDTH 8 0
BBX 8 10 0 0
BITMAP
41
42
42
42
24
24
24
14
18
18
ENDCHAR
STARTCHAR U0057
ENCODING 87
SWIDTH 1000 0
DWIDTH 8 0
BBX 8 10 0 0
BITMAP
81
81
59
59
5A
5A
5A
56
66
66
ENDCHAR
STARTCHAR U0058
ENCODING 88
SWIDTH 1000 0
DWIDTH 8 0
BBX 8 10 0 0
BITMAP
42
42
24
14
18
18
18
24
42
42
ENDCHAR
STARTCHAR U0059
ENCODING 89
SWIDTH 1000 0
DWIDTH 8 0
BBX 8 10 0 0
BITMAP
41
42
22
24
14
18
08
08
08
08
ENDCHAR
STARTCHAR U005A
ENCODING 90
SWIDTH 1000 0
DWIDTH 8 0
BBX 8 10 0 0
BITMAP
7E
02
04
0C
08
10
10
20
40
7E
ENDCHAR
STARTCHAR U005B
ENCODING 91
SWIDTH 1000 0
DWIDTH 8 0
BBX 8 14 0 -2
BITMAP
1E
10
10
10
10
10
10
10
10
10
10
10
1E
00
ENDCHAR
STARTCHAR U005C
ENCODING 92
SWIDTH 1000 0
DWIDTH 8 0
BBX 8 12 0 -2
BITMAP
40
40
20
20
10
10
08
08
04
04
04
02
ENDCHAR
STARTCHAR U005D
ENCODING 93
SWIDTH 1000 0
DWIDTH 8 0
BBX 8 14 0 -2
BITMAP
7C
04
04
04
04
04
04
04
04
04
04
04
7C
00
ENDCHAR
STARTCHAR U005E
ENCODING 94
SWIDTH 1000 0
DWIDTH 8 0
BBX 8 10 0 0
BITMAP
18
18
24
24
00
00
00
00
00
00
ENDCHAR
STARTCHAR U005F
ENCODING 95
SWIDTH 1000 0
DWIDTH 8 0
BBX 8 1 0 -1
BITMAP
7F
ENDCHAR
STARTCHAR U0060
ENCODING 96
SWIDTH 1000 0
DWIDTH 8 0
BBX 8 10 0 0
BITMAP
10
10
08
08
00
00
00
00
00
00
ENDCHAR
STARTCHAR U0061
ENCODING 97
SWIDTH 1000 0
DWIDTH 8 0
BBX 8 8 0 -1
BITMAP
38
04
02
3E
42
46
7B
00
ENDCHAR
STARTCHAR U0062
ENCODING 98
SWIDTH 1000 0
DWIDTH 8 0
BBX 8 10 0 0
BITMAP
40
40
40
5C
62
42
42
42
46
78
ENDCHAR
STARTCHAR U0063
ENCODING 99
SWIDTH 1000 0
DWIDTH 8 0
BBX 8 7 0 0
BITMAP
1E
22
40
40
40
20
1E
ENDCHAR
STARTCHAR U0064
ENCODING 100
SWIDTH 1000 0
DWIDTH 8 0
BBX 8 11 0 -1
BITMAP
02
02
02
3A
46
42
42
42
46
3A
00
ENDCHAR
STARTCHAR U0065
ENCODING 101
SWIDTH 1000 0
DWIDTH 8 0
BBX 8 7 0 0
BITMAP
3C
62
42
7E
40
60
1E
ENDCHAR
STARTCHAR U0066
ENCODING 102
SWIDTH 1000 0
DWIDTH 8 0
BBX 8 10 0 0
BITMAP
0F
18
10
10
10
7E
10
10
10
10
ENDCHAR
STARTCHAR U0067
ENCODING 103
SWIDTH 1000 0
DWIDTH 8 0
BBX 8 10 0 -3
BITMAP
3A
46
42
42
42
46
3A
02
04
78
ENDCHAR
STARTCHAR U0068
ENCODING 104
SWIDTH 1000 0
DWIDTH 8 0
BBX 8 10 0 0
BITMAP
40
40
40
5C
62
42
42
42
42
42
ENDCHAR
STARTCHAR U0069
ENCODING 105
SWIDTH 1000 0
DWIDTH 8 0
BBX 8 11 0 0
BITMAP
08
08
00
00
38
08
08
08
08
08
7E
ENDCHAR
STARTCHAR U006A
ENCODING 106
SWIDTH 1000 0
DWIDTH 8 0
BBX 8 14 0 -3
BITMAP
04
04
00
00
3C
04
04
04
04
04
04
04
08
70
ENDCHAR
STARTCHAR U006B
ENCODING 107
SWIDTH 1000 0
DWIDTH 8 0
BBX 8 10 0 0
BITMAP
40
40
40
42
42
44
7C
44
42
42
ENDCHAR
STARTCHAR U006C
ENCODING 108
SWIDTH 1000 0
DWIDTH 8 0
BBX 8 10 0 0
BITMAP
70
10
10
10
10
10
10
10
10
0E
ENDCHAR
STARTCHAR U006D
ENCODING 109
SWIDTH 1000 0
DWIDTH 8 0
BBX 8 7 0 0
BITMAP
76
4A
4A
4A
4A
4A
4A
ENDCHAR
STARTCHAR U006E
ENCODING 110
SWIDTH 1000 0
DWIDTH 8 0
BBX 8 7 0 0
BITMAP
5C
62
42
42
42
42
42
ENDCHAR
STARTCHAR U006F
ENCODING 111
SWIDTH 1000 0
DWIDTH 8 0
BBX 8 7 0 0
BITMAP
3C
62
42
42
42
62
3C
ENDCHAR
STARTCHAR U0070
ENCODING 112
SWIDTH 1000 0
DWIDTH 8 0
BBX 8 10 0 -3
BITMAP
5C
62
42
42
42
62
5C
40
40
40
ENDCHAR
STARTCHAR U0071
ENCODING 113
SWIDTH 1000 0
DWIDTH 8 0
BBX 8 10 0 -3
BITMAP
3A
46
42
42
42
42
3E
02
02
02
ENDCHAR
STARTCHAR U0072
ENCODING 114
SWIDTH 1000 0
DWIDTH 8 0
BBX 8 7 0 0
BITMAP
6E
31
31
20
20
20
78
ENDCHAR
STARTCHAR U0073
ENCODING 115
SWIDTH 1000 0
DWIDTH 8 0
BBX 8 7 0 0
BITMAP
3E
40
60
1C
02
02
7C
ENDCHAR
STARTCHAR U0074
ENCODING 116
SWIDTH 1000 0
DWIDTH 8 0
BBX 8 9 0 0
BITMAP
10
10
7E
10
10
10
10
10
1E
ENDCHAR
STARTCHAR U0075
ENCODING 117
SWIDTH 1000 0
DWIDTH 8 0
BBX 8 8 0 -1
BITMAP
42
42
42
42
42
46
3B
00
ENDCHAR
STARTCHAR U0076
ENCODING 118
SWIDTH 1000 0
DWIDTH 8 0
BBX 8 7 0 0
BITMAP
42
42
22
24
24
18
18
ENDCHAR
STARTCHAR U0077
ENCODING 119
SWIDTH 1000 0
DWIDTH 8 0
BBX 8 7 0 0
BITMAP
59
5A
5A
5A
56
66
24
ENDCHAR
STARTCHAR U0078
ENCODING 120
SWIDTH 1000 0
DWIDTH 8 0
BBX 8 7 0 0
BITMAP
42
24
18
08
18
24
42
ENDCHAR
STARTCHAR U0079
ENCODING 121
SWIDTH 1000 0
DWIDTH 8 0
BBX 8 10 0 -3
BITMAP
42
42
22
24
24
18
18
10
30
60
ENDCHAR
STARTCHAR U007A
ENCODING 122
SWIDTH 1000 0
DWIDTH 8 0
BBX 8 7 0 0
BITMAP
7E
04
0C
18
10
20
7E
ENDCHAR
STARTCHAR U007B
ENCODING 123
SWIDTH 1000 0
DWIDTH 8 0
BBX 8 14 0 -2
BITMAP
0E
08
10
08
08
08
30
08
08
08
10
08
0E
00
ENDCHAR
STARTCHAR U007C
ENCODING 124
SWIDTH 1000 0
DWIDTH 8 0
BBX 8 15 0 -3
BITMAP
08
08
08
08
08
08
08
08
08
08
08
08
08
08
00
ENDCHAR
STARTCHAR U007D
ENCODING 125
SWIDTH 1000 0
DWIDTH 8 0
BBX 8 14 0 -2
BITMAP
30
08
08
10
10
18
04
18
10
08
08
18
30
00
ENDCHAR
STARTCHAR U007E
ENCODING 126
SWIDTH 1000 0
DWIDTH 8 0
BBX 8 6 0 0
BITMAP
72
4A
46
00
00
00
ENDCHAR
STARTCHAR U00A0
ENCODING 160
SWIDTH 1000 0
DWIDTH 8 0
BBX 0 0 0 0
BITMAP
ENDCHAR
STARTCHAR U00A1
ENCODING 161
SWIDTH 1000 0
DWIDTH 8 0
BBX 8 10 0 -3
BITMAP
18
18
00
08
08
08
08
08
08
08
ENDCHAR
STARTCHAR U00A2
ENCODING 162
SWIDTH 1000 0
DWIDTH 8 0
BBX 8 11 0 -2
BITMAP
08
08
1E
2A
48
48
48
28
1E
08
08
ENDCHAR
STARTCHAR U00A3
ENCODING 163
SWIDTH 1000 0
DWIDTH 8 0
BBX 8 10 0 0
BITMAP
1E
23
20
20
20
7C
20
20
40
7E
ENDCHAR
STARTCHAR U00A4
ENCODING 164
SWIDTH 1000 0
DWIDTH 8 0
BBX 8 9 0 0
BITMAP
42
7E
26
42
22
7E
41
00
00
ENDCHAR
STARTCHAR U00A5
ENCODING 165
SWIDTH 1000 0
DWIDTH 8 0
BBX 8 10 0 0
BITMAP
41
42
22
24
14
18
2E
08
7E
08
ENDCHAR
STARTCHAR U00A6
ENCODING 166
SWIDTH 1000 0
DWIDTH 8 0
BBX 8 15 0 -3
BITMAP
08
08
08
08
08
08
00
00
08
08
08
08
08
08
00
ENDCHAR
STARTCHAR U00A7
ENCODING 167
SWIDTH 1000 0
DWIDTH 8 0
BBX 8 12 0 -2
BITMAP
3C
40
40
38
7E
41
41
7E
1C
02
02
7C
ENDCHAR
STARTCHAR U00A8
ENCODING 168
SWIDTH 1000 0
DWIDTH 8 0
BBX 8 11 0 0
BITMAP
24
24
00
00
00
00
00
00
00
00
00
ENDCHAR
STARTCHAR U00A9
ENCODING 169
SWIDTH 1000 0
DWIDTH 8 0
BBX 8 10 0 0
BITMAP
3C
42
41
9D
A1
A1
9D
41
42
3C
ENDCHAR
STARTCHAR U00AA
ENCODING 170
SWIDTH 1000 0
DWIDTH 8 0
BBX 8 10 0 0
BITMAP
38
04
3C
24
3C
00
00
00
00
00
ENDCHAR
STARTCHAR U00AB
ENCODING 171
SWIDTH 1000 0
DWIDTH 8 0
BBX 8 7 0 0
BITMAP
12
12
24
48
24
12
12
ENDCHAR
STARTCHAR U00AC
ENCODING 172
SWIDTH 1000 0
DWIDTH 8 0
BBX 8 6 0 0
BITMAP
7E
02
02
02
00
00
ENDCHAR
STARTCHAR U00AD
ENCODING 173
SWIDTH 1000 0
DWIDTH 8 0
BBX 8 5 0 0
BITMAP
7E
00
00
00
00
ENDCHAR
STARTCHAR U00AE
ENCODING 174
SWIDTH 1000 0
DWIDTH 8 0
BBX 8 10 0 0
BITMAP
3C
42
41
9D
A5
99
A5
41
42
3C
ENDCHAR
STARTCHAR U00AF
ENCODING 175
SWIDTH 1000 0
DWIDTH 8 0
BBX 8 10 0 0
BITMAP
7E
00
00
00
00
00
00
00
00
00
ENDCHAR
STARTCHAR U00B0
ENCODING 176
SWIDTH 1000 0
DWIDTH 8 0
BBX 8 10 0 0
BITMAP
3C
26
42
26
3C
00
00
00
00
00
ENDCHAR
STARTCHAR U00B1
ENCODING 177
SWIDTH 1000 0
DWIDTH 8 0
BBX 8 8 0 0
BITMAP
08
08
08
7E
08
08
7E
00
ENDCHAR
STARTCHAR U00B2
ENCODING 178
SWIDTH 1000 0
DWIDTH 8 0
BBX 8 10 0 0
BITMAP
1C
08
10
1C
00
00
00
00
00
00
ENDCHAR
STARTCHAR U00B3
ENCODING 179
SWIDTH 1000 0
DWIDTH 8 0
BBX 8 10 0 0
BITMAP
1C
18
04
18
00
00
00
00
00
00
ENDCHAR
STARTCHAR U00B4
ENCODING 180
SWIDTH 1000 0
DWIDTH 8 0
BBX 8 12 0 0
BITMAP
08
08
10
00
00
00
00
00
00
00
00
00
ENDCHAR
STARTCHAR U00B5
ENCODING 181
SWIDTH 1000 0
DWIDTH 8 0
BBX 8 10 0 -3
BITMAP
42
42
42
42
42
66
7B
40
40
40
ENDCHAR
STARTCHAR U00B6
ENCODING 182
SWIDTH 1000 0
DWIDTH 8 0
BBX 8 10 0 0
BITMAP
7F
72
F2
F2
72
12
12
12
12
12
ENDCHAR
STARTCHAR U00B7
ENCODING 183
SWIDTH 1000 0
DWIDTH 8 0
BBX 8 6 0 0
BITMAP
18
18
00
00
00
00
ENDCHAR
STARTCHAR U00B8
ENCODING 184
SWIDTH 1000 0
DWIDTH 8 0
BBX 8 5 0 -5
BITMAP
10
18
08
18
00
ENDCHAR
STARTCHAR U00B9
ENCODING 185
SWIDTH 1000 0
DWIDTH 8 0
BBX 8 10 0 0
BITMAP
38
08
08
3C
00
00
00
00
00
00
ENDCHAR
STARTCHAR U00BA
ENCODING 186
SWIDTH 1000 0
DWIDTH 8 0
BBX 8 10 0 0
BITMAP
1C
24
24
24
1C
00
00
00
00
00
ENDCHAR
STARTCHAR U00BB
ENCODING 187
SWIDTH 1000 0
DWIDTH 8 0
BBX 8 7 0 0
BITMAP
48
6C
24
12
24
6C
48
ENDCHAR
STARTCHAR U00BC
ENCODING 188
SWIDTH 1000 0
DWIDTH 8 0
BBX 8 10 0 0
BITMAP
60
20
20
76
0C
10
2A
4A
0F
02
ENDCHAR
STARTCHAR U00BD
ENCODING 189
SWIDTH 1000 0
DWIDTH 8 0
BBX 8 10 0 0
BITMAP
60
20
20
76
0C
10
2E
41
02
0F
ENDCHAR
STARTCHAR U00BE
ENCODING 190
SWIDTH 1000 0
DWIDTH 8 0
BBX 8 10 0 0
BITMAP
70
30
10
72
0C
10
2A
4A
0F
02
ENDCHAR
STARTCHAR U00BF
ENCODING 191
SWIDTH 1000 0
DWIDTH 8 0
BBX 8 10 0 -3
BITMAP
08
08
00
08
08
10
20
40
60
3E
ENDCHAR
STARTCHAR U00C0
ENCODING 192
SWIDTH 1000 0
DWIDTH 8 0
BBX 8 13 0 0
BITMAP
10
08
00
18
18
14
24
24
24
7E
42
42
41
ENDCHAR
STARTCHAR U00C1
ENCODING 193
SWIDTH 1000 0
DWIDTH 8 0
BBX 8 13 0 0
BITMAP
08
18
00
18
18
14
24
24
24
7E
42
42
41
ENDCHAR
STARTCHAR U00C2
ENCODING 194
SWIDTH 1000 0
DWIDTH 8 0
BBX 8 13 0 0
BITMAP
18
24
00
18
18
14
24
24
24
7E
42
42
41
ENDCHAR
STARTCHAR U00C3
ENCODING 195
SWIDTH 1000 0
DWIDTH 8 0
BBX 8 14 0 0
BITMAP
32
4C
00
18
18
14
24
24
24
7E
42
42
41
00
ENDCHAR
STARTCHAR U00C4
ENCODING 196
SWIDTH 1000 0
DWIDTH 8 0
BBX 8 13 0 0
BITMAP
24
24
00
18
18
14
24
24
24
7E
42
42
41
ENDCHAR
STARTCHAR U00C5
ENCODING 197
SWIDTH 1000 0
DWIDTH 8 0
BBX 8 14 0 0
BITMAP
18
24
18
00
18
18
14
24
24
24
7E
42
42
41
ENDCHAR
STARTCHAR U00C6
ENCODING 198
SWIDTH 1000 0
DWIDTH 8 0
BBX 8 10 0 0
BITMAP
1E
18
18
28
2E
28
48
78
48
8E
ENDCHAR
STARTCHAR U00C7
ENCODING 199
SWIDTH 1000 0
DWIDTH 8 0
BBX 8 14 0 -5
BITMAP
1E
20
40
40
40
40
40
40
20
1E
08
0C
04
0C
ENDCHAR
STARTCHAR U00C8
ENCODING 200
SWIDTH 1000 0
DWIDTH 8 0
BBX 8 13 0 0
BITMAP
10
08
00
7E
40
40
40
7C
40
40
40
40
7E
ENDCHAR
STARTCHAR U00C9
ENCODING 201
SWIDTH 1000 0
DWIDTH 8 0
BBX 8 13 0 0
BITMAP
04
0C
00
7E
40
40
40
7C
40
40
40
40
7E
ENDCHAR
STARTCHAR U00CA
ENCODING 202
SWIDTH 1000 0
DWIDTH 8 0
BBX 8 13 0 0
BITMAP
18
24
00
7E
40
40
40
7C
40
40
40
40
7E
ENDCHAR
STARTCHAR U00CB
ENCODING 203
SWIDTH 1000 0
DWIDTH 8 0
BBX 8 13 0 0
BITMAP
24
24
00
7E
40
40
40
7C
40
40
40
40
7E
ENDCHAR
STARTCHAR U00CC
ENCODING 204
SWIDTH 1000 0
DWIDTH 8 0
BBX 8 13 0 0
BITMAP
10
08
00
7E
08
08
08
08
08
08
08
08
7E
ENDCHAR
STARTCHAR U00CD
ENCODING 205
SWIDTH 1000 0
DWIDTH 8 0
BBX 8 13 0 0
BITMAP
08
18
00
7E
08
08
08
08
08
08
08
08
7E
ENDCHAR
STARTCHAR U00CE
ENCODING 206
SWIDTH 1000 0
DWIDTH 8 0
BBX 8 13 0 0
BITMAP
18
24
00
7E
08
08
08
08
08
08
08
08
7E
ENDCHAR
STARTCHAR U00CF
ENCODING 207
SWIDTH 1000 0
DWIDTH 8 0
BBX 8 13 0 0
BITMAP
24
24
00
7E
08
08
08
08
08
08
08
08
7E
ENDCHAR
STARTCHAR U00D0
ENCODING 208
SWIDTH 1000 0
DWIDTH 8 0
BBX 8 10 0 0
BITMAP
7C
46
42
42
F1
41
41
42
46
7C
ENDCHAR
STARTCHAR U00D1
ENCODING 209
SWIDTH 1000 0
DWIDTH 8 0
BBX 8 14 0 0
BITMAP
32
4C
00
62
62
52
52
52
4A
4A
46
46
42
00
ENDCHAR
STARTCHAR U00D2
ENCODING 210
SWIDTH 1000 0
DWIDTH 8 0
BBX 8 13 0 0
BITMAP
10
08
00
3C
62
42
41
41
41
41
42
62
3C
ENDCHAR
STARTCHAR U00D3
ENCODING 211
SWIDTH 1000 0
DWIDTH 8 0
BBX 8 13 0 0
BITMAP
08
18
00
3C
62
42
41
41
41
41
42
62
3C
ENDCHAR
STARTCHAR U00D4
ENCODING 212
SWIDTH 1000 0
DWIDTH 8 0
BBX 8 13 0 0
BITMAP
18
24
00
3C
62
42
41
41
41
41
42
62
3C
ENDCHAR
STARTCHAR U00D5
ENCODING 213
SWIDTH 1000 0
DWIDTH 8 0
BBX 8 14 0 0
BITMAP
32
4C
00
3C
62
42
41
41
41
41
42
62
3C
00
ENDCHAR
STARTCHAR U00D6
ENCODING 214
SWIDTH 1000 0
DWIDTH 8 0
BBX 8 13 0 0
BITMAP
24
24
00
3C
62
42
41
41
41
41
42
62
3C
ENDCHAR
STARTCHAR U00D7
ENCODING 215
SWIDTH 1000 0
DWIDTH 8 0
BBX 8 8 0 0
BITMAP
42
24
18
18
24
42
00
00
ENDCHAR
STARTCHAR U00D8
ENCODING 216
SWIDTH 1000 0
DWIDTH 8 0
BBX 8 12 0 -1
BITMAP
02
3E
66
46
49
49
51
51
62
62
7C
40
ENDCHAR
STARTCHAR U00D9
ENCODING 217
SWIDTH 1000 0
DWIDTH 8 0
BBX 8 13 0 0
BITMAP
10
08
00
42
42
42
42
42
42
42
42
62
3C
ENDCHAR
STARTCHAR U00DA
ENCODING 218
SWIDTH 1000 0
DWIDTH 8 0
BBX 8 13 0 0
BITMAP
08
18
00
42
42
42
42
42
42
42
42
62
3C
ENDCHAR
STARTCHAR U00DB
ENCODING 219
SWIDTH 1000 0
DWIDTH 8 0
BBX 8 13 0 0
BITMAP
18
24
00
42
42
42
42
42
42
42
42
62
3C
ENDCHAR
STARTCHAR U00DC
ENCODING 220
SWIDTH 1000 0
DWIDTH 8 0
BBX 8 13 0 0
BITMAP
24
24
00
42
42
42
42
42
42
42
42
62
3C
ENDCHAR
STARTCHAR U00DD
ENCODING 221
SWIDTH 1000 0
DWIDTH 8 0
BBX 8 13 0 0
BITMAP
08
18
00
41
42
22
24
14
18
08
08
08
08
ENDCHAR
STARTCHAR U00DE
ENCODING 222
SWIDTH 1000 0
DWIDTH 8 0
BBX 8 10 0 0
BITMAP
40
40
7C
42
41
41
42
7C
40
40
ENDCHAR
STARTCHAR U00DF
ENCODING 223
SWIDTH 1000 0
DWIDTH 8 0
BBX 8 10 0 0
BITMAP
1C
22
22
24
24
64
22
21
21
2E
ENDCHAR
STARTCHAR U00E0
ENCODING 224
SWIDTH 1000 0
DWIDTH 8 0
BBX 8 12 0 -1
BITMAP
20
20
10
00
38
04
02
3E
42
46
7B
00
ENDCHAR
STARTCHAR U00E1
ENCODING 225
SWIDTH 1000 0
DWIDTH 8 0
BBX 8 12 0 -1
BITMAP
08
08
10
00
38
04
02
3E
42
46
7B
00
ENDCHAR
STARTCHAR U00E2
ENCODING 226
SWIDTH 1000 0
DWIDTH 8 0
BBX 8 12 0 -1
BITMAP
18
18
24
00
38
04
02
3E
42
46
7B
00
ENDCHAR
STARTCHAR U00E3
ENCODING 227
SWIDTH 1000 0
DWIDTH 8 0
BBX 8 11 0 -1
BITMAP
32
2C
00
38
04
02
3E
42
46
7B
00
ENDCHAR
STARTCHAR U00E4
ENCODING 228
SWIDTH 1000 0
DWIDTH 8 0
BBX 8 11 0 -1
BITMAP
24
24
00
38
04
02
3E
42
46
7B
00
ENDCHAR
STARTCHAR U00E5
ENCODING 229
SWIDTH 1000 0
DWIDTH 8 0
BBX 8 12 0 -1
BITMAP
18
24
18
00
38
04
02
3E
42
46
7B
00
ENDCHAR
STARTCHAR U00E6
ENCODING 230
SWIDTH 1000 0
DWIDTH 8 0
BBX 8 7 0 0
BITMAP
66
19
09
7F
88
98
67
ENDCHAR
STARTCHAR U00E7
ENCODING 231
SWIDTH 1000 0
DWIDTH 8 0
BBX 8 11 0 -5
BITMAP
1E
22
40
40
40
20
1E
08
0C
04
0C
ENDCHAR
STARTCHAR U00E8
ENCODING 232
SWIDTH 1000 0
DWIDTH 8 0
BBX 8 11 0 0
BITMAP
10
10
08
00
3C
62
42
7E
40
60
1E
ENDCHAR
STARTCHAR U00E9
ENCODING 233
SWIDTH 1000 0
DWIDTH 8 0
BBX 8 11 0 0
BITMAP
04
04
08
00
3C
62
42
7E
40
60
1E
ENDCHAR
STARTCHAR U00EA
ENCODING 234
SWIDTH 1000 0
DWIDTH 8 0
BBX 8 11 0 0
BITMAP
18
18
24
00
3C
62
42
7E
40
60
1E
ENDCHAR
STARTCHAR U00EB
ENCODING 235
SWIDTH 1000 0
DWIDTH 8 0
BBX 8 10 0 0
BITMAP
24
24
00
3C
62
42
7E
40
60
1E
ENDCHAR
STARTCHAR U00EC
ENCODING 236
SWIDTH 1000 0
DWIDTH 8 0
BBX 8 11 0 0
BITMAP
10
10
08
00
38
08
08
08
08
08
7E
ENDCHAR
STARTCHAR U00ED
ENCODING 237
SWIDTH 1000 0
DWIDTH 8 0
BBX 8 11 0 0
BITMAP
04
04
08
00
38
08
08
08
08
08
7E
ENDCHAR
STARTCHAR U00EE
ENCODING 238
SWIDTH 1000 0
DWIDTH 8 0
BBX 8 12 0 0
BITMAP
08
18
24
00
00
38
08
08
08
08
08
7E
ENDCHAR
STARTCHAR U00EF
ENCODING 239
SWIDTH 1000 0
DWIDTH 8 0
BBX 8 11 0 0
BITMAP
24
24
00
00
38
08
08
08
08
08
7E
ENDCHAR
STARTCHAR U00F0
ENCODING 240
SWIDTH 1000 0
DWIDTH 8 0
BBX 8 11 0 0
BITMAP
30
0E
34
02
1A
66
42
42
42
62
3C
ENDCHAR
STARTCHAR U00F1
ENCODING 241
SWIDTH 1000 0
DWIDTH 8 0
BBX 8 10 0 0
BITMAP
32
2C
00
5C
62
42
42
42
42
42
ENDCHAR
STARTCHAR U00F2
ENCODING 242
SWIDTH 1000 0
DWIDTH 8 0
BBX 8 11 0 0
BITMAP
10
10
08
00
3C
62
42
42
42
62
3C
ENDCHAR
STARTCHAR U00F3
ENCODING 243
SWIDTH 1000 0
DWIDTH 8 0
BBX 8 11 0 0
BITMAP
04
04
08
00
3C
62
42
42
42
62
3C
ENDCHAR
STARTCHAR U00F4
ENCODING 244
SWIDTH 1000 0
DWIDTH 8 0
BBX 8 11 0 0
BITMAP
18
18
24
00
3C
62
42
42
42
62
3C
ENDCHAR
STARTCHAR U00F5
ENCODING 245
SWIDTH 1000 0
DWIDTH 8 0
BBX 8 10 0 0
BITMAP
32
2C
00
3C
62
42
42
42
62
3C
ENDCHAR
STARTCHAR U00F6
ENCODING 246
SWIDTH 1000 0
DWIDTH 8 0
BBX 8 10 0 0
BITMAP
24
24
00
3C
62
42
42
42
62
3C
ENDCHAR
STARTCHAR U00F7
ENCODING 247
SWIDTH 1000 0
DWIDTH 8 0
BBX 8 9 0 0
BITMAP
18
18
00
00
7E
00
00
18
18
ENDCHAR
STARTCHAR U00F8
ENCODING 248
SWIDTH 1000 0
DWIDTH 8 0
BBX 8 9 0 -1
BITMAP
02
3C
66
4A
4A
52
62
3C
40
ENDCHAR
STARTCHAR U00F9
ENCODING 249
SWIDTH 1000 0
DWIDTH 8 0
BBX 8 12 0 -1
BITMAP
20
20
10
00
42
42
42
42
42
46
3B
00
ENDCHAR
STARTCHAR U00FA
ENCODING 250
SWIDTH 1000 0
DWIDTH 8 0
BBX 8 12 0 -1
BITMAP
08
08
10
00
42
42
42
42
42
46
3B
00
ENDCHAR
STARTCHAR U00FB
ENCODING 251
SWIDTH 1000 0
DWIDTH 8 0
BBX 8 12 0 -1
BITMAP
18
18
24
00
42
42
42
42
42
46
3B
00
ENDCHAR
STARTCHAR U00FC
ENCODING 252
SWIDTH 1000 0
DWIDTH 8 0
BBX 8 11 0 -1
BITMAP
24
24
00
42
42
42
42
42
46
3B
00
ENDCHAR
STARTCHAR U00FD
ENCODING 253
SWIDTH 1000 0
DWIDTH 8 0
BBX 8 14 0 -3
BITMAP
04
04
08
00
42
42
22
24
24
18
18
10
30
60
ENDCHAR
STARTCHAR U00FE
ENCODING 254
SWIDTH 1000 0
DWIDTH 8 0
BBX 8 13 0 -3
BITMAP
40
40
40
5C
62
42
42
42
62
5C
40
40
40
ENDCHAR
STARTCHAR U00FF
ENCODING 255
SWIDTH 1000 0
DWIDTH 8 0
BBX 8 13 0 -3
BITMAP
24
24
00
42
42
22
24
24
18
18
10
30
60
ENDCHAR
STARTCHAR U0100
ENCODING 256
SWIDTH 1000 0
DWIDTH 8 0
BBX 8 12 0 0
BITMAP
7E
00
18
18
14
24
24
24
7E
42
42
41
ENDCHAR
STARTCHAR U0101
ENCODING 257
SWIDTH 1000 0
DWIDTH 8 0
BBX 8 10 0 -1
BITMAP
7E
00
38
04
02
3E
42
46
7B
00
ENDCHAR
STARTCHAR U0102
ENCODING 258
SWIDTH 1000 0
DWIDTH 8 0
BBX 8 13 0 0
BITMAP
22
3C
00
18
18
14
24
24
24
7E
42
42
41
ENDCHAR
STARTCHAR U0103
ENCODING 259
SWIDTH 1000 0
DWIDTH 8 0
BBX 8 12 0 -1
BITMAP
22
24
1C
00
38
04
02
3E
42
46
7B
00
ENDCHAR
STARTCHAR U0104
ENCODING 260
SWIDTH 1000 0
DWIDTH 8 0
BBX 8 13 0 -3
BITMAP
18
18
18
24
24
24
7E
42
42
41
02
04
03
ENDCHAR
STARTCHAR U0105
ENCODING 261
SWIDTH 1000 0
DWIDTH 8 0
BBX 8 10 0 -3
BITMAP
38
04
02
3E
42
46
7B
02
04
03
ENDCHAR
STARTCHAR U0106
ENCODING 262
SWIDTH 1000 0
DWIDTH 8 0
BBX 8 13 0 0
BITMAP
04
0C
00
1E
20
40
40
40
40
40
40
20
1E
ENDCHAR
STARTCHAR U0107
ENCODING 263
SWIDTH 1000 0
DWIDTH 8 0
BBX 8 11 0 0
BITMAP
04
04
08
00
1E
22
40
40
40
20
1E
ENDCHAR
STARTCHAR U0108
ENCODING 264
SWIDTH 1000 0
DWIDTH 8 0
BBX 8 13 0 0
BITMAP
0C
12
00
1E
20
40
40
40
40
40
40
20
1E
ENDCHAR
STARTCHAR U0109
ENCODING 265
SWIDTH 1000 0
DWIDTH 8 0
BBX 8 11 0 0
BITMAP
18
18
24
00
1E
22
40
40
40
20
1E
ENDCHAR
STARTCHAR U010A
ENCODING 266
SWIDTH 1000 0
DWIDTH 8 0
BBX 8 13 0 0
BITMAP
0C
0C
00
1E
20
40
40
40
40
40
40
20
1E
ENDCHAR
STARTCHAR U010B
ENCODING 267
SWIDTH 1000 0
DWIDTH 8 0
BBX 8 10 0 0
BITMAP
18
18
00
1E
22
40
40
40
20
1E
ENDCHAR
STARTCHAR U010C
ENCODING 268
SWIDTH 1000 0
DWIDTH 8 0
BBX 8 13 0 0
BITMAP
12
0C
00
1E
20
40
40
40
40
40
40
20
1E
ENDCHAR
STARTCHAR U010D
ENCODING 269
SWIDTH 1000 0
DWIDTH 8 0
BBX 8 11 0 0
BITMAP
24
18
18
00
1E
22
40
40
40
20
1E
ENDCHAR
STARTCHAR U010E
ENCODING 270
SWIDTH 1000 0
DWIDTH 8 0
BBX 8 13 0 0
BITMAP
24
18
00
7C
46
42
42
41
41
41
42
46
7C
ENDCHAR
STARTCHAR U010F
ENCODING 271
SWIDTH 1000 0
DWIDTH 8 0
BBX 10 11 0 -1
BITMAP
0280
0280
0280
3A00
4600
4200
4200
4200
4600
3A00
0000
ENDCHAR
STARTCHAR U0110
ENCODING 272
SWIDTH 1000 0
DWIDTH 8 0
BBX 8 10 0 0
BITMAP
7C
46
42
42
F1
41
41
42
46
7C
ENDCHAR
STARTCHAR U0111
ENCODING 273
SWIDTH 1000 0
DWIDTH 8 0
BBX 8 11 0 -1
BITMAP
02
1F
02
3A
46
42
42
42
46
3A
00
ENDCHAR
STARTCHAR U0112
ENCODING 274
SWIDTH 1000 0
DWIDTH 8 0
BBX 8 12 0 0
BITMAP
7E
00
7E
40
40
40
7C
40
40
40
40
7E
ENDCHAR
STARTCHAR U0113
ENCODING 275
SWIDTH 1000 0
DWIDTH 8 0
BBX 8 9 0 0
BITMAP
7E
00
3C
62
42
7E
40
60
1E
ENDCHAR
STARTCHAR U0114
ENCODING 276
SWIDTH 1000 0
DWIDTH 8 0
BBX 8 13 0 0
BITMAP
22
3C
00
7E
40
40
40
7C
40
40
40
40
7E
ENDCHAR
STARTCHAR U0115
ENCODING 277
SWIDTH 1000 0
DWIDTH 8 0
BBX 8 11 0 0
BITMAP
22
24
1C
00
3C
62
42
7E
40
60
1E
ENDCHAR
STARTCHAR U0116
ENCODING 278
SWIDTH 1000 0
DWIDTH 8 0
BBX 8 13 0 0
BITMAP
18
18
00
7E
40
40
40
7C
40
40
40
40
7E
ENDCHAR
STARTCHAR U0117
ENCODING 279
SWIDTH 1000 0
DWIDTH 8 0
BBX 8 10 0 0
BITMAP
18
18
00
3C
62
42
7E
40
60
1E
ENDCHAR
STARTCHAR U0118
ENCODING 280
SWIDTH 1000 0
DWIDTH 8 0
BBX 8 13 0 -3
BITMAP
7E
40
40
40
7C
40
40
40
40
7E
04
04
06
ENDCHAR
STARTCHAR U0119
ENCODING 281
SWIDTH 1000 0
DWIDTH 8 0
BBX 8 10 0 -3
BITMAP
3C
62
42
7E
40
60
1E
08
08
06
ENDCHAR
STARTCHAR U011A
ENCODING 282
SWIDTH 1000 0
DWIDTH 8 0
BBX 8 13 0 0
BITMAP
24
18
00
7E
40
40
40
7C
40
40
40
40
7E
ENDCHAR
STARTCHAR U011B
ENCODING 283
SWIDTH 1000 0
DWIDTH 8 0
BBX 8 11 0 0
BITMAP
24
18
18
00
3C
62
42
7E
40
60
1E
ENDCHAR
STARTCHAR U011C
ENCODING 284
SWIDTH 1000 0
DWIDTH 8 0
BBX 8 13 0 0
BITMAP
0C
12
00
1E
60
40
40
40
4E
42
42
62
1E
ENDCHAR
STARTCHAR U011D
ENCODING 285
SWIDTH 1000 0
DWIDTH 8 0
BBX 8 14 0 -3
BITMAP
18
18
24
00
3A
46
42
42
42
46
3A
02
04
78
ENDCHAR
STARTCHAR U011E
ENCODING 286
SWIDTH 1000 0
DWIDTH 8 0
BBX 8 13 0 0
BITMAP
11
1E
00
1E
60
40
40
40
4E
42
42
62
1E
ENDCHAR
STARTCHAR U011F
ENCODING 287
SWIDTH 1000 0
DWIDTH 8 0
BBX 8 14 0 -3
BITMAP
22
24
1C
00
3A
46
42
42
42
46
3A
02
04
78
ENDCHAR
STARTCHAR U0120
ENCODING 288
SWIDTH 1000 0
DWIDTH 8 0
BBX 8 13 0 0
BITMAP
0C
0C
00
1E
60
40
40
40
4E
42
42
62
1E
ENDCHAR
STARTCHAR U0121
ENCODING 289
SWIDTH 1000 0
DWIDTH 8 0
BBX 8 13 0 -3
BITMAP
18
18
00
3A
46
42
42
42
46
3A
02
04
78
ENDCHAR
STARTCHAR U0122
ENCODING 290
SWIDTH 1000 0
DWIDTH 8 0
BBX 8 14 0 -5
BITMAP
1E
60
40
40
40
4E
42
42
62
1E
00
0C
04
04
ENDCHAR
STARTCHAR U0123
ENCODING 291
SWIDTH 1000 0
DWIDTH 8 0
BBX 8 14 0 -3
BITMAP
08
10
18
00
3A
46
42
42
42
46
3A
02
04
78
ENDCHAR
STARTCHAR U0124
ENCODING 292
SWIDTH 1000 0
DWIDTH 8 0
BBX 8 13 0 0
BITMAP
18
24
00
42
42
42
42
7E
42
42
42
42
42
ENDCHAR
STARTCHAR U0125
ENCODING 293
SWIDTH 1000 0
DWIDTH 8 0
BBX 9 13 -1 0
BITMAP
6000
9000
0000
4000
4000
4000
5C00
6200
4200
4200
4200
4200
4200
ENDCHAR
STARTCHAR U0126
ENCODING 294
SWIDTH 1000 0
DWIDTH 8 0
BBX 8 10 0 0
BITMAP
42
FF
42
42
7E
42
42
42
42
42
ENDCHAR
STARTCHAR U0127
ENCODING 295
SWIDTH 1000 0
DWIDTH 8 0
BBX 8 10 0 0
BITMAP
40
F8
40
5C
62
42
42
42
42
42
ENDCHAR
STARTCHAR U0128
ENCODING 296
SWIDTH 1000 0
DWIDTH 8 0
BBX 8 14 0 0
BITMAP
32
4C
00
7E
08
08
08
08
08
08
08
08
7E
00
ENDCHAR
STARTCHAR U0129
ENCODING 297
SWIDTH 1000 0
DWIDTH 8 0
BBX 8 10 0 0
BITMAP
32
2C
00
38
08
08
08
08
08
7E
ENDCHAR
STARTCHAR U012A
ENCODING 298
SWIDTH 1000 0
DWIDTH 8 0
BBX 8 12 0 0
BITMAP
7E
00
7E
08
08
08
08
08
08
08
08
7E
ENDCHAR
STARTCHAR U012B
ENCODING 299
SWIDTH 1000 0
DWIDTH 8 0
BBX 8 9 0 0
BITMAP
7E
00
38
08
08
08
08
08
7E
ENDCHAR
STARTCHAR U012C
ENCODING 300
SWIDTH 1000 0
DWIDTH 8 0
BBX 8 13 0 0
BITMAP
22
3C
00
7E
08
08
08
08
08
08
08
08
7E
ENDCHAR
STARTCHAR U012D
ENCODING 301
SWIDTH 1000 0
DWIDTH 8 0
BBX 8 12 0 0
BITMAP
20
24
3C
00
00
38
08
08
08
08
08
7E
ENDCHAR
STARTCHAR U012E
ENCODING 302
SWIDTH 1000 0
DWIDTH 8 0
BBX 8 13 0 -3
BITMAP
7E
08
08
08
08
08
08
08
08
7E
10
10
18
ENDCHAR
STARTCHAR U012F
ENCODING 303
SWIDTH 1000 0
DWIDTH 8 0
BBX 8 14 0 -3
BITMAP
08
08
00
00
38
08
08
08
08
08
7E
10
10
18
ENDCHAR
STARTCHAR U0130
ENCODING 304
SWIDTH 1000 0
DWIDTH 8 0
BBX 8 13 0 0
BITMAP
18
18
00
7E
08
08
08
08
08
08
08
08
7E
ENDCHAR
STARTCHAR U0131
ENCODING 305
SWIDTH 1000 0
DWIDTH 8 0
BBX 8 7 0 0
BITMAP
38
08
08
08
08
08
7E
ENDCHAR
STARTCHAR U0132
ENCODING 306
SWIDTH 1000 0
DWIDTH 8 0
BBX 8 10 0 0
BITMAP
F6
22
22
22
22
F2
02
22
22
1C
ENDCHAR
STARTCHAR U0133
ENCODING 307
SWIDTH 1000 0
DWIDTH 8 0
BBX 8 14 0 -3
BITMAP
26
26
00
00
24
24
24
24
20
22
22
04
04
38
ENDCHAR
STARTCHAR U0134
ENCODING 308
SWIDTH 1000 0
DWIDTH 8 0
BBX 8 13 0 0
BITMAP
0C
12
00
1E
02
02
02
02
02
02
42
42
3C
ENDCHAR
STARTCHAR U0135
ENCODING 309
SWIDTH 1000 0
DWIDTH 8 0
BBX 8 14 0 -3
BITMAP
0C
0C
12
00
3C
04
04
04
04
04
04
04
08
70
ENDCHAR
STARTCHAR U0136
ENCODING 310
SWIDTH 1000 0
DWIDTH 8 0
BBX 8 14 0 -5
BITMAP
42
42
42
42
44
4C
74
46
42
41
00
18
08
08
ENDCHAR
STARTCHAR U0137
ENCODING 311
SWIDTH 1000 0
DWIDTH 8 0
BBX 8 14 0 -5
BITMAP
40
40
40
42
42
44
7C
44
42
42
00
18
08
08
ENDCHAR
STARTCHAR U0138
ENCODING 312
SWIDTH 1000 0
DWIDTH 8 0
BBX 8 7 0 0
BITMAP
42
42
44
7C
44
42
42
ENDCHAR
STARTCHAR U0139
ENCODING 313
SWIDTH 1000 0
DWIDTH 8 0
BBX 8 13 0 0
BITMAP
20
60
00
40
40
40
40
40
40
40
40
40
7E
ENDCHAR
STARTCHAR U013A
ENCODING 314
SWIDTH 1000 0
DWIDTH 8 0
BBX 8 13 0 0
BITMAP
08
18
00
70
10
10
10
10
10
10
10
10
0E
ENDCHAR
STARTCHAR U013B
ENCODING 315
SWIDTH 1000 0
DWIDTH 8 0
BBX 8 14 0 -5
BITMAP
40
40
40
40
40
40
40
40
40
7E
00
18
08
08
ENDCHAR
STARTCHAR U013C
ENCODING 316
SWIDTH 1000 0
DWIDTH 8 0
BBX 8 14 0 -5
BITMAP
70
10
10
10
10
10
10
10
10
0E
00
0C
04
04
ENDCHAR
STARTCHAR U013D
ENCODING 317
SWIDTH 1000 0
DWIDTH 8 0
BBX 8 11 0 0
BITMAP
02
42
44
40
40
40
40
40
40
40
7E
ENDCHAR
STARTCHAR U013E
ENCODING 318
SWIDTH 1000 0
DWIDTH 8 0
BBX 8 10 0 0
BITMAP
72
12
14
10
10
10
10
10
10
0E
ENDCHAR
STARTCHAR U013F
ENCODING 319
SWIDTH 1000 0
DWIDTH 8 0
BBX 8 10 0 0
BITMAP
40
40
40
4C
4C
40
40
40
40
7E
ENDCHAR
STARTCHAR U0140
ENCODING 320
SWIDTH 1000 0
DWIDTH 8 0
BBX 8 10 0 0
BITMAP
70
10
10
16
12
10
10
10
10
0E
ENDCHAR
STARTCHAR U0141
ENCODING 321
SWIDTH 1000 0
DWIDTH 8 0
BBX 8 10 0 0
BITMAP
20
20
20
2C
30
60
A0
20
20
3E
ENDCHAR
STARTCHAR U0142
ENCODING 322
SWIDTH 1000 0
DWIDTH 8 0
BBX 8 10 0 0
BITMAP
70
10
10
14
18
30
50
10
10
0E
ENDCHAR
STARTCHAR U0143
ENCODING 323
SWIDTH 1000 0
DWIDTH 8 0
BBX 8 13 0 0
BITMAP
08
18
00
62
62
52
52
52
4A
4A
46
46
42
ENDCHAR
STARTCHAR U0144
ENCODING 324
SWIDTH 1000 0
DWIDTH 8 0
BBX 8 11 0 0
BITMAP
08
08
10
00
5C
62
42
42
42
42
42
ENDCHAR
STARTCHAR U0145
ENCODING 325
SWIDTH 1000 0
DWIDTH 8 0
BBX 8 14 0 -5
BITMAP
62
62
52
52
52
4A
4A
46
46
42
00
18
08
08
ENDCHAR
STARTCHAR U0146
ENCODING 326
SWIDTH 1000 0
DWIDTH 8 0
BBX 8 11 0 -5
BITMAP
5C
62
42
42
42
42
42
00
18
08
08
ENDCHAR
STARTCHAR U0147
ENCODING 327
SWIDTH 1000 0
DWIDTH 8 0
BBX 8 13 0 0
BITMAP
24
18
00
62
62
52
52
52
4A
4A
46
46
42
ENDCHAR
STARTCHAR U0148
ENCODING 328
SWIDTH 1000 0
DWIDTH 8 0
BBX 8 11 0 0
BITMAP
24
18
18
00
5C
62
42
42
42
42
42
ENDCHAR
STARTCHAR U0149
ENCODING 329
SWIDTH 1000 0
DWIDTH 8 0
BBX 8 12 0 0
BITMAP
C0
40
40
80
00
5C
62
42
42
42
42
42
ENDCHAR
STARTCHAR U014A
ENCODING 330
SWIDTH 1000 0
DWIDTH 8 0
BBX 8 13 0 -4
BITMAP
62
62
52
52
52
4A
4A
46
46
42
02
02
0C
ENDCHAR
STARTCHAR U014B
ENCODING 331
SWIDTH 1000 0
DWIDTH 8 0
BBX 8 10 0 -3
BITMAP
5C
62
42
42
42
42
42
02
06
1C
ENDCHAR
STARTCHAR U014C
ENCODING 332
SWIDTH 1000 0
DWIDTH 8 0
BBX 8 12 0 0
BITMAP
7E
00
3C
62
42
41
41
41
41
42
62
3C
ENDCHAR
STARTCHAR U014D
ENCODING 333
SWIDTH 1000 0
DWIDTH 8 0
BBX 8 9 0 0
BITMAP
7E
00
3C
62
42
42
42
62
3C
ENDCHAR
STARTCHAR U014E
ENCODING 334
SWIDTH 1000 0
DWIDTH 8 0
BBX 8 13 0 0
BITMAP
22
3C
00
3C
62
42
41
41
41
41
42
62
3C
ENDCHAR
STARTCHAR U014F
ENCODING 335
SWIDTH 1000 0
DWIDTH 8 0
BBX 8 11 0 0
BITMAP
22
24
1C
00
3C
62
42
42
42
62
3C
ENDCHAR
STARTCHAR U0150
ENCODING 336
SWIDTH 1000 0
DWIDTH 8 0
BBX 8 13 0 0
BITMAP
16
14
00
3C
62
42
41
41
41
41
42
62
3C
ENDCHAR
STARTCHAR U0151
ENCODING 337
SWIDTH 1000 0
DWIDTH 8 0
BBX 8 11 0 0
BITMAP
14
24
24
00
3C
62
42
42
42
62
3C
ENDCHAR
STARTCHAR U0152
ENCODING 338
SWIDTH 1000 0
DWIDTH 8 0
BBX 8 10 0 0
BITMAP
3E
48
48
48
4E
48
48
48
48
3E
ENDCHAR
STARTCHAR U0153
ENCODING 339
SWIDTH 1000 0
DWIDTH 8 0
BBX 8 7 0 0
BITMAP
76
99
89
8F
88
58
77
ENDCHAR
STARTCHAR U0154
ENCODING 340
SWIDTH 1000 0
DWIDTH 8 0
BBX 8 13 0 0
BITMAP
08
18
00
7C
42
42
42
42
7C
44
44
42
42
ENDCHAR
STARTCHAR U0155
ENCODING 341
SWIDTH 1000 0
DWIDTH 8 0
BBX 8 11 0 0
BITMAP
04
04
08
00
6E
31
31
20
20
20
78
ENDCHAR
STARTCHAR U0156
ENCODING 342
SWIDTH 1000 0
DWIDTH 8 0
BBX 8 14 0 -5
BITMAP
7C
42
42
42
42
7C
44
44
42
42
00
18
08
08
ENDCHAR
STARTCHAR U0157
ENCODING 343
SWIDTH 1000 0
DWIDTH 8 0
BBX 8 11 0 -5
BITMAP
6E
31
31
20
20
20
78
00
30
10
10
ENDCHAR
STARTCHAR U0158
ENCODING 344
SWIDTH 1000 0
DWIDTH 8 0
BBX 8 13 0 0
BITMAP
24
18
00
7C
42
42
42
42
7C
44
44
42
42
ENDCHAR
STARTCHAR U0159
ENCODING 345
SWIDTH 1000 0
DWIDTH 8 0
BBX 8 11 0 0
BITMAP
24
18
18
00
6E
31
31
20
20
20
78
ENDCHAR
STARTCHAR U015A
ENCODING 346
SWIDTH 1000 0
DWIDTH 8 0
BBX 8 13 0 0
BITMAP
04
0C
00
3C
62
40
60
30
0C
02
02
02
7C
ENDCHAR
STARTCHAR U015B
ENCODING 347
SWIDTH 1000 0
DWIDTH 8 0
BBX 8 11 0 0
BITMAP
04
04
08
00
3E
40
60
1C
02
02
7C
ENDCHAR
STARTCHAR U015C
ENCODING 348
SWIDTH 1000 0
DWIDTH 8 0
BBX 8 13 0 0
BITMAP
18
24
00
3C
62
40
60
30
0C
02
02
02
7C
ENDCHAR
STARTCHAR U015D
ENCODING 349
SWIDTH 1000 0
DWIDTH 8 0
BBX 8 11 0 0
BITMAP
18
18
24
00
3E
40
60
1C
02
02
7C
ENDCHAR
STARTCHAR U015E
ENCODING 350
SWIDTH 1000 0
DWIDTH 8 0
BBX 8 14 0 -5
BITMAP
3C
62
40
60
30
0C
02
02
02
7C
10
18
08
18
ENDCHAR
STARTCHAR U015F
ENCODING 351
SWIDTH 1000 0
DWIDTH 8 0
BBX 8 11 0 -5
BITMAP
3E
40
60
1C
02
02
7C
10
18
08
18
ENDCHAR
STARTCHAR U0160
ENCODING 352
SWIDTH 1000 0
DWIDTH 8 0
BBX 8 13 0 0
BITMAP
24
18
00
3C
62
40
60
30
0C
02
02
02
7C
ENDCHAR
STARTCHAR U0161
ENCODING 353
SWIDTH 1000 0
DWIDTH 8 0
BBX 8 11 0 0
BITMAP
24
18
18
00
3E
40
60
1C
02
02
7C
ENDCHAR
STARTCHAR U0162
ENCODING 354
SWIDTH 1000 0
DWIDTH 8 0
BBX 8 14 0 -5
BITMAP
7F
08
08
08
08
08
08
08
08
08
10
18
08
18
ENDCHAR
STARTCHAR U0163
ENCODING 355
SWIDTH 1000 0
DWIDTH 8 0
BBX 8 13 0 -5
BITMAP
10
10
7E
10
10
10
10
10
1E
08
0C
04
0C
ENDCHAR
STARTCHAR U0164
ENCODING 356
SWIDTH 1000 0
DWIDTH 8 0
BBX 8 13 0 0
BITMAP
24
18
00
7F
08
08
08
08
08
08
08
08
08
ENDCHAR
STARTCHAR U0165
ENCODING 357
SWIDTH 1000 0
DWIDTH 8 0
BBX 8 11 0 0
BITMAP
04
04
14
10
7E
10
10
10
10
10
0E
ENDCHAR
STARTCHAR U0166
ENCODING 358
SWIDTH 1000 0
DWIDTH 8 0
BBX 8 10 0 0
BITMAP
7F
08
08
08
08
7E
08
08
08
08
ENDCHAR
STARTCHAR U0167
ENCODING 359
SWIDTH 1000 0
DWIDTH 8 0
BBX 8 9 0 0
BITMAP
10
10
7E
10
10
7E
10
10
0E
ENDCHAR
STARTCHAR U0168
ENCODING 360
SWIDTH 1000 0
DWIDTH 8 0
BBX 8 14 0 0
BITMAP
32
4C
00
42
42
42
42
42
42
42
42
62
3C
00
ENDCHAR
STARTCHAR U0169
ENCODING 361
SWIDTH 1000 0
DWIDTH 8 0
BBX 8 11 0 -1
BITMAP
32
2C
00
42
42
42
42
42
46
3B
00
ENDCHAR
STARTCHAR U016A
ENCODING 362
SWIDTH 1000 0
DWIDTH 8 0
BBX 8 12 0 0
BITMAP
7E
00
42
42
42
42
42
42
42
42
62
3C
ENDCHAR
STARTCHAR U016B
ENCODING 363
SWIDTH 1000 0
DWIDTH 8 0
BBX 8 10 0 -1
BITMAP
7E
00
42
42
42
42
42
46
3B
00
ENDCHAR
STARTCHAR U016C
ENCODING 364
SWIDTH 1000 0
DWIDTH 8 0
BBX 8 13 0 0
BITMAP
22
3C
00
42
42
42
42
42
42
42
42
62
3C
ENDCHAR
STARTCHAR U016D
ENCODING 365
SWIDTH 1000 0
DWIDTH 8 0
BBX 8 12 0 -1
BITMAP
22
24
1C
00
42
42
42
42
42
46
3B
00
ENDCHAR
STARTCHAR U016E
ENCODING 366
SWIDTH 1000 0
DWIDTH 8 0
BBX 8 14 0 0
BITMAP
18
24
18
00
42
42
42
42
42
42
42
42
62
3C
ENDCHAR
STARTCHAR U016F
ENCODING 367
SWIDTH 1000 0
DWIDTH 8 0
BBX 8 12 0 -1
BITMAP
18
24
18
00
42
42
42
42
42
46
3B
00
ENDCHAR
STARTCHAR U0170
ENCODING 368
SWIDTH 1000 0
DWIDTH 8 0
BBX 8 13 0 0
BITMAP
16
14
00
42
42
42
42
42
42
42
42
62
3C
ENDCHAR
STARTCHAR U0171
ENCODING 369
SWIDTH 1000 0
DWIDTH 8 0
BBX 8 12 0 -1
BITMAP
14
24
24
00
42
42
42
42
42
46
3B
00
ENDCHAR
STARTCHAR U0172
ENCODING 370
SWIDTH 1000 0
DWIDTH 8 0
BBX 8 13 0 -3
BITMAP
42
42
42
42
42
42
42
42
62
3C
10
10
18
ENDCHAR
STARTCHAR U0173
ENCODING 371
SWIDTH 1000 0
DWIDTH 8 0
BBX 8 10 0 -3
BITMAP
42
42
42
42
42
46
3B
02
04
03
ENDCHAR
STARTCHAR U0174
ENCODING 372
SWIDTH 1000 0
DWIDTH 8 0
BBX 8 13 0 0
BITMAP
18
24
00
81
81
59
59
5A
5A
5A
56
66
66
ENDCHAR
STARTCHAR U0175
ENCODING 373
SWIDTH 1000 0
DWIDTH 8 0
BBX 8 11 0 0
BITMAP
18
18
24
00
59
5A
5A
5A
56
66
24
ENDCHAR
STARTCHAR U0176
ENCODING 374
SWIDTH 1000 0
DWIDTH 8 0
BBX 8 13 0 0
BITMAP
18
24
00
41
42
22
24
14
18
08
08
08
08
ENDCHAR
STARTCHAR U0177
ENCODING 375
SWIDTH 1000 0
DWIDTH 8 0
BBX 8 14 0 -3
BITMAP
18
18
24
00
42
42
22
24
24
18
18
10
30
60
ENDCHAR
STARTCHAR U0178
ENCODING 376
SWIDTH 1000 0
DWIDTH 8 0
BBX 8 13 0 0
BITMAP
24
24
00
41
42
22
24
14
18
08
08
08
08
ENDCHAR
STARTCHAR U0179
ENCODING 377
SWIDTH 1000 0
DWIDTH 8 0
BBX 8 13 0 0
BITMAP
08
18
00
7E
02
04
0C
08
10
10
20
40
7E
ENDCHAR
STARTCHAR U017A
ENCODING 378
SWIDTH 1000 0
DWIDTH 8 0
BBX 8 11 0 0
BITMAP
04
04
08
00
7E
04
0C
18
10
20
7E
ENDCHAR
STARTCHAR U017B
ENCODING 379
SWIDTH 1000 0
DWIDTH 8 0
BBX 8 13 0 0
BITMAP
18
18
00
7E
02
04
0C
08
10
10
20
40
7E
ENDCHAR
STARTCHAR U017C
ENCODING 380
SWIDTH 1000 0
DWIDTH 8 0
BBX 8 10 0 0
BITMAP
18
18
00
7E
04
0C
18
10
20
7E
ENDCHAR
STARTCHAR U017D
ENCODING 381
SWIDTH 1000 0
DWIDTH 8 0
BBX 8 13 0 0
BITMAP
24
18
00
7E
02
04
0C
08
10
10
20
40
7E
ENDCHAR
STARTCHAR U017E
ENCODING 382
SWIDTH 1000 0
DWIDTH 8 0
BBX 8 11 0 0
BITMAP
24
18
18
00
7E
04
0C
18
10
20
7E
ENDCHAR
STARTCHAR U017F
ENCODING 383
SWIDTH 1000 0
DWIDTH 8 0
BBX 8 10 0 0
BITMAP
07
08
10
10
10
70
10
10
10
10
ENDCHAR
STARTCHAR U0180
ENCODING 384
SWIDTH 1000 0
DWIDTH 8 0
BBX 8 10 0 0
BITMAP
7E
42
42
42
42
42
42
42
42
7E
ENDCHAR
STARTCHAR U0181
ENCODING 385
SWIDTH 1000 0
DWIDTH 8 0
BBX 8 10 0 0
BITMAP
7E
42
42
42
42
42
42
42
42
7E
ENDCHAR
STARTCHAR U0182
ENCODING 386
SWIDTH 1000 0
DWIDTH 8 0
BBX 8 10 0 0
BITMAP
7E
42
42
42
42
42
42
42
42
7E
ENDCHAR
STARTCHAR U0183
ENCODING 387
SWIDTH 1000 0
DWIDTH 8 0
BBX 8 10 0 0
BITMAP
7E
42
42
42
42
42
42
42
42
7E
ENDCHAR
STARTCHAR U0184
ENCODING 388
SWIDTH 1000 0
DWIDTH 8 0
BBX 8 10 0 0
BITMAP
7E
42
42
42
42
42
42
42
42
7E
ENDCHAR
STARTCHAR U0185
ENCODING 389
SWIDTH 1000 0
DWIDTH 8 0
BBX 8 10 0 0
BITMAP
7E
42
42
42
42
42
42
42
42
7E
ENDCHAR
STARTCHAR U0186
ENCODING 390
SWIDTH 1000 0
DWIDTH 8 0
BBX 8 10 0 0
BITMAP
7C
06
02
02
01
01
02
02
46
7C
ENDCHAR
STARTCHAR U0187
ENCODING 391
SWIDTH 1000 0
DWIDTH 8 0
BBX 8 10 0 0
BITMAP
7E
42
42
42
42
42
42
42
42
7E
ENDCHAR
STARTCHAR U0188
ENCODING 392
SWIDTH 1000 0
DWIDTH 8 0
BBX 8 10 0 0
BITMAP
7E
42
42
42
42
42
42
42
42
7E
ENDCHAR
STARTCHAR U0189
ENCODING 393
SWIDTH 1000 0
DWIDTH 8 0
BBX 8 10 0 0
BITMAP
7C
46
42
42
F1
41
41
42
46
7C
ENDCHAR
STARTCHAR U018A
ENCODING 394
SWIDTH 1000 0
DWIDTH 8 0
BBX 8 10 0 0
BITMAP
7E
42
42
42
42
42
42
42
42
7E
ENDCHAR
STARTCHAR U018B
ENCODING 395
SWIDTH 1000 0
DWIDTH 8 0
BBX 8 10 0 0
BITMAP
7E
42
42
42
42
42
42
42
42
7E
ENDCHAR
STARTCHAR U018C
ENCODING 396
SWIDTH 1000 0
DWIDTH 8 0
BBX 8 10 0 0
BITMAP
7E
42
42
42
42
42
42
42
42
7E
ENDCHAR
STARTCHAR U018D
ENCODING 397
SWIDTH 1000 0
DWIDTH 8 0
BBX 8 10 0 0
BITMAP
7E
42
42
42
42
42
42
42
42
7E
ENDCHAR
STARTCHAR U018E
ENCODING 398
SWIDTH 1000 0
DWIDTH 8 0
BBX 8 10 0 0
BITMAP
7E
02
02
02
3E
02
02
02
02
7E
ENDCHAR
STARTCHAR U018F
ENCODING 399
SWIDTH 1000 0
DWIDTH 8 0
BBX 8 10 0 0
BITMAP
7C
06
02
02
7F
41
41
42
62
3C
ENDCHAR
STARTCHAR U0190
ENCODING 400
SWIDTH 1000 0
DWIDTH 8 0
BBX 8 10 0 0
BITMAP
3E
20
40
20
1C
20
40
40
60
3E
ENDCHAR
STARTCHAR U0191
ENCODING 401
SWIDTH 1000 0
DWIDTH 8 0
BBX 9 14 -1 -4
BITMAP
7F00
4000
4000
4000
4000
7E00
4000
4000
4000
4000
4000
4000
C000
0000
ENDCHAR
STARTCHAR U0192
ENCODING 402
SWIDTH 1000 0
DWIDTH 8 0
BBX 8 13 0 -3
BITMAP
0F
18
10
10
10
7E
10
10
10
10
10
30
60
ENDCHAR
STARTCHAR U0193
ENCODING 403
SWIDTH 1000 0
DWIDTH 8 0
BBX 8 10 0 0
BITMAP
7E
42
42
42
42
42
42
42
42
7E
ENDCHAR
STARTCHAR U0194
ENCODING 404
SWIDTH 1000 0
DWIDTH 8 0
BBX 8 13 0 -3
BITMAP
41
42
42
42
24
24
24
14
18
18
24
24
1C
ENDCHAR
STARTCHAR U0195
ENCODING 405
SWIDTH 1000 0
DWIDTH 8 0
BBX 8 10 0 0
BITMAP
7E
42
42
42
42
42
42
42
42
7E
ENDCHAR
STARTCHAR U0196
ENCODING 406
SWIDTH 1000 0
DWIDTH 8 0
BBX 8 10 0 0
BITMAP
70
10
10
10
10
10
10
10
10
0E
ENDCHAR
STARTCHAR U0197
ENCODING 407
SWIDTH 1000 0
DWIDTH 8 0
BBX 8 10 0 0
BITMAP
7E
42
42
42
42
42
42
42
42
7E
ENDCHAR
STARTCHAR U0198
ENCODING 408
SWIDTH 1000 0
DWIDTH 8 0
BBX 8 10 0 0
BITMAP
7E
42
42
42
42
42
42
42
42
7E
ENDCHAR
STARTCHAR U0199
ENCODING 409
SWIDTH 1000 0
DWIDTH 8 0
BBX 8 10 0 0
BITMAP
7E
42
42
42
42
42
42
42
42
7E
ENDCHAR
STARTCHAR U019A
ENCODING 410
SWIDTH 1000 0
DWIDTH 8 0
BBX 8 10 0 0
BITMAP
70
10
10
10
7C
10
10
10
10
0E
ENDCHAR
STARTCHAR U019B
ENCODING 411
SWIDTH 1000 0
DWIDTH 8 0
BBX 8 10 0 0
BITMAP
30
16
7C
58
18
28
24
24
44
43
ENDCHAR
STARTCHAR U019C
ENCODING 412
SWIDTH 1000 0
DWIDTH 8 0
BBX 8 10 0 0
BITMAP
7E
42
42
42
42
42
42
42
42
7E
ENDCHAR
STARTCHAR U019D
ENCODING 413
SWIDTH 1000 0
DWIDTH 8 0
BBX 9 13 -1 -4
BITMAP
3100
3100
2900
2900
2900
2500
2500
2300
2300
2100
2000
2000
4000
ENDCHAR
STARTCHAR U019E
ENCODING 414
SWIDTH 1000 0
DWIDTH 8 0
BBX 8 10 0 0
BITMAP
7E
42
42
42
42
42
42
42
42
7E
ENDCHAR
STARTCHAR U019F
ENCODING 415
SWIDTH 1000 0
DWIDTH 8 0
BBX 8 10 0 0
BITMAP
7E
42
42
42
42
42
42
42
42
7E
ENDCHAR
STARTCHAR U01A0
ENCODING 416
SWIDTH 1000 0
DWIDTH 8 0
BBX 9 11 0 0
BITMAP
0080
3D00
6300
4200
4100
4100
4100
4100
4200
6200
3C00
ENDCHAR
STARTCHAR U01A1
ENCODING 417
SWIDTH 1000 0
DWIDTH 8 0
BBX 8 9 0 0
BITMAP
01
02
3E
62
42
42
42
62
3C
ENDCHAR
STARTCHAR U01A2
ENCODING 418
SWIDTH 1000 0
DWIDTH 8 0
BBX 8 10 0 0
BITMAP
7E
42
42
42
42
42
42
42
42
7E
ENDCHAR
STARTCHAR U01A3
ENCODING 419
SWIDTH 1000 0
DWIDTH 8 0
BBX 8 10 0 0
BITMAP
7E
42
42
42
42
42
42
42
42
7E
ENDCHAR
STARTCHAR U01A4
ENCODING 420
SWIDTH 1000 0
DWIDTH 8 0
BBX 8 10 0 0
BITMAP
7E
42
42
42
42
42
42
42
42
7E
ENDCHAR
STARTCHAR U01A5
ENCODING 421
SWIDTH 1000 0
DWIDTH 8 0
BBX 8 10 0 0
BITMAP
7E
42
42
42
42
42
42
42
42
7E
ENDCHAR
STARTCHAR U01A6
ENCODING 422
SWIDTH 1000 0
DWIDTH 8 0
BBX 8 10 0 0
BITMAP
7E
42
42
42
42
42
42
42
42
7E
ENDCHAR
STARTCHAR U01A7
ENCODING 423
SWIDTH 1000 0
DWIDTH 8 0
BBX 8 10 0 0
BITMAP
7E
42
42
42
42
42
42
42
42
7E
ENDCHAR
STARTCHAR U01A8
ENCODING 424
SWIDTH 1000 0
DWIDTH 8 0
BBX 8 10 0 0
BITMAP
7E
42
42
42
42
42
42
42
42
7E
ENDCHAR
STARTCHAR U01A9
ENCODING 425
SWIDTH 1000 0
DWIDTH 8 0
BBX 8 10 0 0
BITMAP
7E
20
30
10
08
08
10
30
20
7E
ENDCHAR
STARTCHAR U01AA
ENCODING 426
SWIDTH 1000 0
DWIDTH 8 0
BBX 8 10 0 0
BITMAP
7E
42
42
42
42
42
42
42
42
7E
ENDCHAR
STARTCHAR U01AB
ENCODING 427
SWIDTH 1000 0
DWIDTH 8 0
BBX 8 10 0 0
BITMAP
7E
42
42
42
42
42
42
42
42
7E
ENDCHAR
STARTCHAR U01AC
ENCODING 428
SWIDTH 1000 0
DWIDTH 8 0
BBX 8 10 0 0
BITMAP
7E
42
42
42
42
42
42
42
42
7E
ENDCHAR
STARTCHAR U01AD
ENCODING 429
SWIDTH 1000 0
DWIDTH 8 0
BBX 8 10 0 0
BITMAP
7E
42
42
42
42
42
42
42
42
7E
ENDCHAR
STARTCHAR U01AE
ENCODING 430
SWIDTH 1000 0
DWIDTH 8 0
BBX 8 10 0 0
BITMAP
7E
42
42
42
42
42
42
42
42
7E
ENDCHAR
STARTCHAR U01AF
ENCODING 431
SWIDTH 1000 0
DWIDTH 8 0
BBX 9 12 0 0
BITMAP
0080
0180
4300
4200
4200
4200
4200
4200
4200
4200
6200
3C00
ENDCHAR
STARTCHAR U01B0
ENCODING 432
SWIDTH 1000 0
DWIDTH 8 0
BBX 9 10 0 -1
BITMAP
0100
0100
4200
4200
4200
4200
4200
4600
3B00
0000
ENDCHAR
STARTCHAR U01B1
ENCODING 433
SWIDTH 1000 0
DWIDTH 8 0
BBX 8 10 0 0
BITMAP
76
22
42
42
41
41
41
42
62
3C
ENDCHAR
STARTCHAR U01B2
ENCODING 434
SWIDTH 1000 0
DWIDTH 8 0
BBX 8 10 0 0
BITMAP
46
42
42
42
42
42
42
42
62
3C
ENDCHAR
STARTCHAR U01B3
ENCODING 435
SWIDTH 1000 0
DWIDTH 8 0
BBX 8 10 0 0
BITMAP
7E
42
42
42
42
42
42
42
42
7E
ENDCHAR
STARTCHAR U01B4
ENCODING 436
SWIDTH 1000 0
DWIDTH 8 0
BBX 8 10 0 0
BITMAP
7E
42
42
42
42
42
42
42
42
7E
ENDCHAR
STARTCHAR U01B5
ENCODING 437
SWIDTH 1000 0
DWIDTH 8 0
BBX 8 10 0 0
BITMAP
7E
42
42
42
42
42
42
42
42
7E
ENDCHAR
STARTCHAR U01B6
ENCODING 438
SWIDTH 1000 0
DWIDTH 8 0
BBX 8 10 0 0
BITMAP
7E
42
42
42
42
42
42
42
42
7E
ENDCHAR
STARTCHAR U01B7
ENCODING 439
SWIDTH 1000 0
DWIDTH 8 0
BBX 8 10 0 0
BITMAP
7E
04
08
10
3C
06
02
02
42
3C
ENDCHAR
STARTCHAR U01B8
ENCODING 440
SWIDTH 1000 0
DWIDTH 8 0
BBX 8 10 0 0
BITMAP
7E
42
42
42
42
42
42
42
42
7E
ENDCHAR
STARTCHAR U01B9
ENCODING 441
SWIDTH 1000 0
DWIDTH 8 0
BBX 8 10 0 0
BITMAP
7E
42
42
42
42
42
42
42
42
7E
ENDCHAR
STARTCHAR U01BA
ENCODING 442
SWIDTH 1000 0
DWIDTH 8 0
BBX 8 10 0 0
BITMAP
7E
42
42
42
42
42
42
42
42
7E
ENDCHAR
STARTCHAR U01BB
ENCODING 443
SWIDTH 1000 0
DWIDTH 8 0
BBX 8 10 0 0
BITMAP
7E
42
42
42
42
42
42
42
42
7E
ENDCHAR
STARTCHAR U01BC
ENCODING 444
SWIDTH 1000 0
DWIDTH 8 0
BBX 8 10 0 0
BITMAP
7E
42
42
42
42
42
42
42
42
7E
ENDCHAR
STARTCHAR U01BD
ENCODING 445
SWIDTH 1000 0
DWIDTH 8 0
BBX 8 10 0 0
BITMAP
7E
42
42
42
42
42
42
42
42
7E
ENDCHAR
STARTCHAR U01BE
ENCODING 446
SWIDTH 1000 0
DWIDTH 8 0
BBX 8 10 0 0
BITMAP
7E
42
42
42
42
42
42
42
42
7E
ENDCHAR
STARTCHAR U01BF
ENCODING 447
SWIDTH 1000 0
DWIDTH 8 0
BBX 8 10 0 0
BITMAP
7E
42
42
42
42
42
42
42
42
7E
ENDCHAR
STARTCHAR U01C0
ENCODING 448
SWIDTH 1000 0
DWIDTH 8 0
BBX 8 10 0 0
BITMAP
7E
42
42
42
42
42
42
42
42
7E
ENDCHAR
STARTCHAR U01C1
ENCODING 449
SWIDTH 1000 0
DWIDTH 8 0
BBX 8 10 0 0
BITMAP
7E
42
42
42
42
42
42
42
42
7E
ENDCHAR
STARTCHAR U01C2
ENCODING 450
SWIDTH 1000 0
DWIDTH 8 0
BBX 8 10 0 0
BITMAP
7E
42
42
42
42
42
42
42
42
7E
ENDCHAR
STARTCHAR U01C3
ENCODING 451
SWIDTH 1000 0
DWIDTH 8 0
BBX 8 10 0 0
BITMAP
7E
42
42
42
42
42
42
42
42
7E
ENDCHAR
STARTCHAR U01C4
ENCODING 452
SWIDTH 1000 0
DWIDTH 8 0
BBX 8 10 0 0
BITMAP
7E
42
42
42
42
42
42
42
42
7E
ENDCHAR
STARTCHAR U01C5
ENCODING 453
SWIDTH 1000 0
DWIDTH 8 0
BBX 8 10 0 0
BITMAP
7E
42
42
42
42
42
42
42
42
7E
ENDCHAR
STARTCHAR U01C6
ENCODING 454
SWIDTH 1000 0
DWIDTH 8 0
BBX 8 10 0 0
BITMAP
7E
42
42
42
42
42
42
42
42
7E
ENDCHAR
STARTCHAR U01C7
ENCODING 455
SWIDTH 1000 0
DWIDTH 8 0
BBX 8 10 0 0
BITMAP
7E
42
42
42
42
42
42
42
42
7E
ENDCHAR
STARTCHAR U01C8
ENCODING 456
SWIDTH 1000 0
DWIDTH 8 0
BBX 8 10 0 0
BITMAP
7E
42
42
42
42
42
42
42
42
7E
ENDCHAR
STARTCHAR U01C9
ENCODING 457
SWIDTH 1000 0
DWIDTH 8 0
BBX 8 10 0 0
BITMAP
7E
42
42
42
42
42
42
42
42
7E
ENDCHAR
STARTCHAR U01CA
ENCODING 458
SWIDTH 1000 0
DWIDTH 8 0
BBX 8 10 0 0
BITMAP
7E
42
42
42
42
42
42
42
42
7E
ENDCHAR
STARTCHAR U01CB
ENCODING 459
SWIDTH 1000 0
DWIDTH 8 0
BBX 8 10 0 0
BITMAP
7E
42
42
42
42
42
42
42
42
7E
ENDCHAR
STARTCHAR U01CC
ENCODING 460
SWIDTH 1000 0
DWIDTH 8 0
BBX 8 10 0 0
BITMAP
7E
42
42
42
42
42
42
42
42
7E
ENDCHAR
STARTCHAR U01CD
ENCODING 461
SWIDTH 1000 0
DWIDTH 8 0
BBX 8 13 0 0
BITMAP
24
18
00
18
18
14
24
24
24
7E
42
42
41
ENDCHAR
STARTCHAR U01CE
ENCODING 462
SWIDTH 1000 0
DWIDTH 8 0
BBX 8 12 0 -1
BITMAP
24
18
18
00
38
04
02
3E
42
46
7B
00
ENDCHAR
STARTCHAR U01CF
ENCODING 463
SWIDTH 1000 0
DWIDTH 8 0
BBX 8 10 0 0
BITMAP
7E
42
42
42
42
42
42
42
42
7E
ENDCHAR
STARTCHAR U01D0
ENCODING 464
SWIDTH 1000 0
DWIDTH 8 0
BBX 8 10 0 0
BITMAP
7E
42
42
42
42
42
42
42
42
7E
ENDCHAR
STARTCHAR U01D1
ENCODING 465
SWIDTH 1000 0
DWIDTH 8 0
BBX 8 10 0 0
BITMAP
7E
42
42
42
42
42
42
42
42
7E
ENDCHAR
STARTCHAR U01D2
ENCODING 466
SWIDTH 1000 0
DWIDTH 8 0
BBX 8 10 0 0
BITMAP
7E
42
42
42
42
42
42
42
42
7E
ENDCHAR
STARTCHAR U01D3
ENCODING 467
SWIDTH 1000 0
DWIDTH 8 0
BBX 8 10 0 0
BITMAP
7E
42
42
42
42
42
42
42
42
7E
ENDCHAR
STARTCHAR U01D4
ENCODING 468
SWIDTH 1000 0
DWIDTH 8 0
BBX 8 10 0 0
BITMAP
7E
42
42
42
42
42
42
42
42
7E
ENDCHAR
STARTCHAR U01D5
ENCODING 469
SWIDTH 1000 0
DWIDTH 8 0
BBX 8 10 0 0
BITMAP
7E
42
42
42
42
42
42
42
42
7E
ENDCHAR
STARTCHAR U01D6
ENCODING 470
SWIDTH 1000 0
DWIDTH 8 0
BBX 8 10 0 0
BITMAP
7E
42
42
42
42
42
42
42
42
7E
ENDCHAR
STARTCHAR U01D7
ENCODING 471
SWIDTH 1000 0
DWIDTH 8 0
BBX 8 10 0 0
BITMAP
7E
42
42
42
42
42
42
42
42
7E
ENDCHAR
STARTCHAR U01D8
ENCODING 472
SWIDTH 1000 0
DWIDTH 8 0
BBX 8 10 0 0
BITMAP
7E
42
42
42
42
42
42
42
42
7E
ENDCHAR
STARTCHAR U01D9
ENCODING 473
SWIDTH 1000 0
DWIDTH 8 0
BBX 8 10 0 0
BITMAP
7E
42
42
42
42
42
42
42
42
7E
ENDCHAR
STARTCHAR U01DA
ENCODING 474
SWIDTH 1000 0
DWIDTH 8 0
BBX 8 10 0 0
BITMAP
7E
42
42
42
42
42
42
42
42
7E
ENDCHAR
STARTCHAR U01DB
ENCODING 475
SWIDTH 1000 0
DWIDTH 8 0
BBX 8 10 0 0
BITMAP
7E
42
42
42
42
42
42
42
42
7E
ENDCHAR
STARTCHAR U01DC
ENCODING 476
SWIDTH 1000 0
DWIDTH 8 0
BBX 8 10 0 0
BITMAP
7E
42
42
42
42
42
42
42
42
7E
ENDCHAR
STARTCHAR U01DD
ENCODING 477
SWIDTH 1000 0
DWIDTH 8 0
BBX 8 7 0 0
BITMAP
7C
06
02
7E
42
42
3C
ENDCHAR
STARTCHAR U01DE
ENCODING 478
SWIDTH 1000 0
DWIDTH 8 0
BBX 8 10 0 0
BITMAP
7E
42
42
42
42
42
42
42
42
7E
ENDCHAR
STARTCHAR U01DF
ENCODING 479
SWIDTH 1000 0
DWIDTH 8 0
BBX 8 10 0 0
BITMAP
7E
42
42
42
42
42
42
42
42
7E
ENDCHAR
STARTCHAR U01E0
ENCODING 480
SWIDTH 1000 0
DWIDTH 8 0
BBX 8 10 0 0
BITMAP
7E
42
42
42
42
42
42
42
42
7E
ENDCHAR
STARTCHAR U01E1
ENCODING 481
SWIDTH 1000 0
DWIDTH 8 0
BBX 8 10 0 0
BITMAP
7E
42
42
42
42
42
42
42
42
7E
ENDCHAR
STARTCHAR U01E2
ENCODING 482
SWIDTH 1000 0
DWIDTH 8 0
BBX 8 10 0 0
BITMAP
7E
42
42
42
42
42
42
42
42
7E
ENDCHAR
STARTCHAR U01E3
ENCODING 483
SWIDTH 1000 0
DWIDTH 8 0
BBX 8 10 0 0
BITMAP
7E
42
42
42
42
42
42
42
42
7E
ENDCHAR
STARTCHAR U01E4
ENCODING 484
SWIDTH 1000 0
DWIDTH 8 0
BBX 9 10 0 0
BITMAP
1E00
6000
4000
4000
4000
4200
4F00
4200
6200
1E00
ENDCHAR
STARTCHAR U01E5
ENCODING 485
SWIDTH 1000 0
DWIDTH 8 0
BBX 8 10 0 -3
BITMAP
3A
46
42
42
42
46
3A
7A
04
78
ENDCHAR
STARTCHAR U01E6
ENCODING 486
SWIDTH 1000 0
DWIDTH 8 0
BBX 8 13 0 0
BITMAP
12
0C
00
1E
60
40
40
40
4E
42
42
62
1E
ENDCHAR
STARTCHAR U01E7
ENCODING 487
SWIDTH 1000 0
DWIDTH 8 0
BBX 8 14 0 -3
BITMAP
24
18
18
00
3A
46
42
42
42
46
3A
02
04
78
ENDCHAR
STARTCHAR U01E8
ENCODING 488
SWIDTH 1000 0
DWIDTH 8 0
BBX 8 10 0 0
BITMAP
7E
42
42
42
42
42
42
42
42
7E
ENDCHAR
STARTCHAR U01E9
ENCODING 489
SWIDTH 1000 0
DWIDTH 8 0
BBX 8 10 0 0
BITMAP
7E
42
42
42
42
42
42
42
42
7E
ENDCHAR
STARTCHAR U01EA
ENCODING 490
SWIDTH 1000 0
DWIDTH 8 0
BBX 8 13 0 -3
BITMAP
3C
62
42
41
41
41
41
42
62
3C
10
10
18
ENDCHAR
STARTCHAR U01EB
ENCODING 491
SWIDTH 1000 0
DWIDTH 8 0
BBX 8 10 0 -3
BITMAP
3C
62
42
42
42
62
3C
10
10
18
ENDCHAR
STARTCHAR U01EC
ENCODING 492
SWIDTH 1000 0
DWIDTH 8 0
BBX 8 10 0 0
BITMAP
7E
42
42
42
42
42
42
42
42
7E
ENDCHAR
STARTCHAR U01ED
ENCODING 493
SWIDTH 1000 0
DWIDTH 8 0
BBX 8 10 0 0
BITMAP
7E
42
42
42
42
42
42
42
42
7E
ENDCHAR
STARTCHAR U01EE
ENCODING 494
SWIDTH 1000 0
DWIDTH 8 0
BBX 8 10 0 0
BITMAP
7E
42
42
42
42
42
42
42
42
7E
ENDCHAR
STARTCHAR U01EF
ENCODING 495
SWIDTH 1000 0
DWIDTH 8 0
BBX 8 10 0 0
BITMAP
7E
42
42
42
42
42
42
42
42
7E
ENDCHAR
STARTCHAR U01F0
ENCODING 496
SWIDTH 1000 0
DWIDTH 8 0
BBX 8 14 0 -3
BITMAP
12
0C
0C
00
3C
04
04
04
04
04
04
04
08
70
ENDCHAR
STARTCHAR U01F1
ENCODING 497
SWIDTH 1000 0
DWIDTH 8 0
BBX 8 10 0 0
BITMAP
7E
42
42
42
42
42
42
42
42
7E
ENDCHAR
STARTCHAR U01F2
ENCODING 498
SWIDTH 1000 0
DWIDTH 8 0
BBX 8 10 0 0
BITMAP
7E
42
42
42
42
42
42
42
42
7E
ENDCHAR
STARTCHAR U01F3
ENCODING 499
SWIDTH 1000 0
DWIDTH 8 0
BBX 8 10 0 0
BITMAP
7E
42
42
42
42
42
42
42
42
7E
ENDCHAR
STARTCHAR U01F4
ENCODING 500
SWIDTH 1000 0
DWIDTH 8 0
BBX 8 10 0 0
BITMAP
7E
42
42
42
42
42
42
42
42
7E
ENDCHAR
STARTCHAR U01F5
ENCODING 501
SWIDTH 1000 0
DWIDTH 8 0
BBX 8 10 0 0
BITMAP
7E
42
42
42
42
42
42
42
42
7E
ENDCHAR
STARTCHAR U01F6
ENCODING 502
SWIDTH 1000 0
DWIDTH 8 0
BBX 8 10 0 0
BITMAP
7E
42
42
42
42
42
42
42
42
7E
ENDCHAR
STARTCHAR U01F7
ENCODING 503
SWIDTH 1000 0
DWIDTH 8 0
BBX 8 10 0 0
BITMAP
7E
42
42
42
42
42
42
42
42
7E
ENDCHAR
STARTCHAR U01F8
ENCODING 504
SWIDTH 1000 0
DWIDTH 8 0
BBX 8 10 0 0
BITMAP
7E
42
42
42
42
42
42
42
42
7E
ENDCHAR
STARTCHAR U01F9
ENCODING 505
SWIDTH 1000 0
DWIDTH 8 0
BBX 8 10 0 0
BITMAP
7E
42
42
42
42
42
42
42
42
7E
ENDCHAR
STARTCHAR U01FA
ENCODING 506
SWIDTH 1000 0
DWIDTH 8 0
BBX 8 15 0 0
BITMAP
08
18
24
18
00
18
18
14
24
24
24
7E
42
42
41
ENDCHAR
STARTCHAR U01FB
ENCODING 507
SWIDTH 1000 0
DWIDTH 8 0
BBX 8 15 0 -1
BITMAP
08
08
10
18
24
18
00
38
04
02
3E
42
46
7B
00
ENDCHAR
STARTCHAR U01FC
ENCODING 508
SWIDTH 1000 0
DWIDTH 8 0
BBX 8 13 0 0
BITMAP
04
0C
00
1E
18
18
28
2E
28
48
78
48
8E
ENDCHAR
STARTCHAR U01FD
ENCODING 509
SWIDTH 1000 0
DWIDTH 8 0
BBX 8 11 0 0
BITMAP
04
04
08
00
66
19
09
7F
88
98
67
ENDCHAR
STARTCHAR U01FE
ENCODING 510
SWIDTH 1000 0
DWIDTH 8 0
BBX 8 14 0 -1
BITMAP
08
18
02
3E
66
46
49
49
51
51
62
62
7C
40
ENDCHAR
STARTCHAR U01FF
ENCODING 511
SWIDTH 1000 0
DWIDTH 8 0
BBX 8 12 0 -1
BITMAP
04
04
08
02
3C
66
4A
4A
52
62
3C
40
ENDCHAR
STARTCHAR U0200
ENCODING 512
SWIDTH 1000 0
DWIDTH 8 0
BBX 8 10 0 0
BITMAP
7E
42
42
42
42
42
42
42
42
7E
ENDCHAR
STARTCHAR U0201
ENCODING 513
SWIDTH 1000 0
DWIDTH 8 0
BBX 8 10 0 0
BITMAP
7E
42
42
42
42
42
42
42
42
7E
ENDCHAR
STARTCHAR U0202
ENCODING 514
SWIDTH 1000 0
DWIDTH 8 0
BBX 8 10 0 0
BITMAP
7E
42
42
42
42
42
42
42
42
7E
ENDCHAR
STARTCHAR U0203
ENCODING 515
SWIDTH 1000 0
DWIDTH 8 0
BBX 8 10 0 0
BITMAP
7E
42
42
42
42
42
42
42
42
7E
ENDCHAR
STARTCHAR U0204
ENCODING 516
SWIDTH 1000 0
DWIDTH 8 0
BBX 8 10 0 0
BITMAP
7E
42
42
42
42
42
42
42
42
7E
ENDCHAR
STARTCHAR U0205
ENCODING 517
SWIDTH 1000 0
DWIDTH 8 0
BBX 8 10 0 0
BITMAP
7E
42
42
42
42
42
42
42
42
7E
ENDCHAR
STARTCHAR U0206
ENCODING 518
SWIDTH 1000 0
DWIDTH 8 0
BBX 8 10 0 0
BITMAP
7E
42
42
42
42
42
42
42
42
7E
ENDCHAR
STARTCHAR U0207
ENCODING 519
SWIDTH 1000 0
DWIDTH 8 0
BBX 8 10 0 0
BITMAP
7E
42
42
42
42
42
42
42
42
7E
ENDCHAR
STARTCHAR U0208
ENCODING 520
SWIDTH 1000 0
DWIDTH 8 0
BBX 8 10 0 0
BITMAP
7E
42
42
42
42
42
42
42
42
7E
ENDCHAR
STARTCHAR U0209
ENCODING 521
SWIDTH 1000 0
DWIDTH 8 0
BBX 8 10 0 0
BITMAP
7E
42
42
42
42
42
42
42
42
7E
ENDCHAR
STARTCHAR U020A
ENCODING 522
SWIDTH 1000 0
DWIDTH 8 0
BBX 8 10 0 0
BITMAP
7E
42
42
42
42
42
42
42
42
7E
ENDCHAR
STARTCHAR U020B
ENCODING 523
SWIDTH 1000 0
DWIDTH 8 0
BBX 8 10 0 0
BITMAP
7E
42
42
42
42
42
42
42
42
7E
ENDCHAR
STARTCHAR U020C
ENCODING 524
SWIDTH 1000 0
DWIDTH 8 0
BBX 8 10 0 0
BITMAP
7E
42
42
42
42
42
42
42
42
7E
ENDCHAR
STARTCHAR U020D
ENCODING 525
SWIDTH 1000 0
DWIDTH 8 0
BBX 8 10 0 0
BITMAP
7E
42
42
42
42
42
42
42
42
7E
ENDCHAR
STARTCHAR U020E
ENCODING 526
SWIDTH 1000 0
DWIDTH 8 0
BBX 8 10 0 0
BITMAP
7E
42
42
42
42
42
42
42
42
7E
ENDCHAR
STARTCHAR U020F
ENCODING 527
SWIDTH 1000 0
DWIDTH 8 0
BBX 8 10 0 0
BITMAP
7E
42
42
42
42
42
42
42
42
7E
ENDCHAR
STARTCHAR U0210
ENCODING 528
SWIDTH 1000 0
DWIDTH 8 0
BBX 8 10 0 0
BITMAP
7E
42
42
42
42
42
42
42
42
7E
ENDCHAR
STARTCHAR U0211
ENCODING 529
SWIDTH 1000 0
DWIDTH 8 0
BBX 8 10 0 0
BITMAP
7E
42
42
42
42
42
42
42
42
7E
ENDCHAR
STARTCHAR U0212
ENCODING 530
SWIDTH 1000 0
DWIDTH 8 0
BBX 8 10 0 0
BITMAP
7E
42
42
42
42
42
42
42
42
7E
ENDCHAR
STARTCHAR U0213
ENCODING 531
SWIDTH 1000 0
DWIDTH 8 0
BBX 8 10 0 0
BITMAP
7E
42
42
42
42
42
42
42
42
7E
ENDCHAR
STARTCHAR U0214
ENCODING 532
SWIDTH 1000 0
DWIDTH 8 0
BBX 8 10 0 0
BITMAP
7E
42
42
42
42
42
42
42
42
7E
ENDCHAR
STARTCHAR U0215
ENCODING 533
SWIDTH 1000 0
DWIDTH 8 0
BBX 8 10 0 0
BITMAP
7E
42
42
42
42
42
42
42
42
7E
ENDCHAR
STARTCHAR U0216
ENCODING 534
SWIDTH 1000 0
DWIDTH 8 0
BBX 8 10 0 0
BITMAP
7E
42
42
42
42
42
42
42
42
7E
ENDCHAR
STARTCHAR U0217
ENCODING 535
SWIDTH 1000 0
DWIDTH 8 0
BBX 8 10 0 0
BITMAP
7E
42
42
42
42
42
42
42
42
7E
ENDCHAR
STARTCHAR U0218
ENCODING 536
SWIDTH 1000 0
DWIDTH 8 0
BBX 8 14 0 -5
BITMAP
3C
62
40
60
30
0C
02
02
02
7C
00
18
08
08
ENDCHAR
STARTCHAR U0219
ENCODING 537
SWIDTH 1000 0
DWIDTH 8 0
BBX 8 11 0 -5
BITMAP
3E
40
60
1C
02
02
7C
00
18
08
08
ENDCHAR
STARTCHAR U021A
ENCODING 538
SWIDTH 1000 0
DWIDTH 8 0
BBX 8 14 0 -5
BITMAP
7F
08
08
08
08
08
08
08
08
08
00
18
08
08
ENDCHAR
STARTCHAR U021B
ENCODING 539
SWIDTH 1000 0
DWIDTH 8 0
BBX 8 13 0 -5
BITMAP
10
10
7E
10
10
10
10
10
1E
00
18
08
08
ENDCHAR
STARTCHAR U021C
ENCODING 540
SWIDTH 1000 0
DWIDTH 8 0
BBX 8 10 0 0
BITMAP
7E
42
42
42
42
42
42
42
42
7E
ENDCHAR
STARTCHAR U021D
ENCODING 541
SWIDTH 1000 0
DWIDTH 8 0
BBX 8 10 0 0
BITMAP
7E
42
42
42
42
42
42
42
42
7E
ENDCHAR
STARTCHAR U021E
ENCODING 542
SWIDTH 1000 0
DWIDTH 8 0
BBX 8 13 0 0
BITMAP
24
18
00
42
42
42
42
7E
42
42
42
42
42
ENDCHAR
STARTCHAR U021F
ENCODING 543
SWIDTH 1000 0
DWIDTH 8 0
BBX 9 13 -1 0
BITMAP
9000
6000
0000
4000
4000
4000
5C00
6200
4200
4200
4200
4200
4200
ENDCHAR
STARTCHAR U0220
ENCODING 544
SWIDTH 1000 0
DWIDTH 8 0
BBX 8 10 0 0
BITMAP
7E
42
42
42
42
42
42
42
42
7E
ENDCHAR
STARTCHAR U0221
ENCODING 545
SWIDTH 1000 0
DWIDTH 8 0
BBX 8 10 0 0
BITMAP
7E
42
42
42
42
42
42
42
42
7E
ENDCHAR
STARTCHAR U0222
ENCODING 546
SWIDTH 1000 0
DWIDTH 8 0
BBX 8 10 0 0
BITMAP
7E
42
42
42
42
42
42
42
42
7E
ENDCHAR
STARTCHAR U0223
ENCODING 547
SWIDTH 1000 0
DWIDTH 8 0
BBX 8 10 0 0
BITMAP
7E
42
42
42
42
42
42
42
42
7E
ENDCHAR
STARTCHAR U0224
ENCODING 548
SWIDTH 1000 0
DWIDTH 8 0
BBX 8 10 0 0
BITMAP
7E
42
42
42
42
42
42
42
42
7E
ENDCHAR
STARTCHAR U0225
ENCODING 549
SWIDTH 1000 0
DWIDTH 8 0
BBX 8 10 0 0
BITMAP
7E
42
42
42
42
42
42
42
42
7E
ENDCHAR
STARTCHAR U0226
ENCODING 550
SWIDTH 1000 0
DWIDTH 8 0
BBX 8 10 0 0
BITMAP
7E
42
42
42
42
42
42
42
42
7E
ENDCHAR
STARTCHAR U0227
ENCODING 551
SWIDTH 1000 0
DWIDTH 8 0
BBX 8 10 0 0
BITMAP
7E
42
42
42
42
42
42
42
42
7E
ENDCHAR
STARTCHAR U0228
ENCODING 552
SWIDTH 1000 0
DWIDTH 8 0
BBX 8 10 0 0
BITMAP
7E
42
42
42
42
42
42
42
42
7E
ENDCHAR
STARTCHAR U0229
ENCODING 553
SWIDTH 1000 0
DWIDTH 8 0
BBX 8 10 0 0
BITMAP
7E
42
42
42
42
42
42
42
42
7E
ENDCHAR
STARTCHAR U022A
ENCODING 554
SWIDTH 1000 0
DWIDTH 8 0
BBX 8 10 0 0
BITMAP
7E
42
42
42
42
42
42
42
42
7E
ENDCHAR
STARTCHAR U022B
ENCODING 555
SWIDTH 1000 0
DWIDTH 8 0
BBX 8 10 0 0
BITMAP
7E
42
42
42
42
42
42
42
42
7E
ENDCHAR
STARTCHAR U022C
ENCODING 556
SWIDTH 1000 0
DWIDTH 8 0
BBX 8 10 0 0
BITMAP
7E
42
42
42
42
42
42
42
42
7E
ENDCHAR
STARTCHAR U022D
ENCODING 557
SWIDTH 1000 0
DWIDTH 8 0
BBX 8 10 0 0
BITMAP
7E
42
42
42
42
42
42
42
42
7E
ENDCHAR
STARTCHAR U022E
ENCODING 558
SWIDTH 1000 0
DWIDTH 8 0
BBX 8 10 0 0
BITMAP
7E
42
42
42
42
42
42
42
42
7E
ENDCHAR
STARTCHAR U022F
ENCODING 559
SWIDTH 1000 0
DWIDTH 8 0
BBX 8 10 0 0
BITMAP
7E
42
42
42
42
42
42
42
42
7E
ENDCHAR
STARTCHAR U0230
ENCODING 560
SWIDTH 1000 0
DWIDTH 8 0
BBX 8 10 0 0
BITMAP
7E
42
42
42
42
42
42
42
42
7E
ENDCHAR
STARTCHAR U0231
ENCODING 561
SWIDTH 1000 0
DWIDTH 8 0
BBX 8 10 0 0
BITMAP
7E
42
42
42
42
42
42
42
42
7E
ENDCHAR
STARTCHAR U0232
ENCODING 562
SWIDTH 1000 0
DWIDTH 8 0
BBX 8 12 0 0
BITMAP
7E
00
41
42
22
24
14
18
08
08
08
08
ENDCHAR
STARTCHAR U0233
ENCODING 563
SWIDTH 1000 0
DWIDTH 8 0
BBX 8 12 0 -3
BITMAP
7E
00
42
42
22
24
24
18
18
10
30
60
ENDCHAR
STARTCHAR U0234
ENCODING 564
SWIDTH 1000 0
DWIDTH 8 0
BBX 8 10 0 0
BITMAP
7E
42
42
42
42
42
42
42
42
7E
ENDCHAR
STARTCHAR U0235
ENCODING 565
SWIDTH 1000 0
DWIDTH 8 0
BBX 8 10 0 0
BITMAP
7E
42
42
42
42
42
42
42
42
7E
ENDCHAR
STARTCHAR U0236
ENCODING 566
SWIDTH 1000 0
DWIDTH 8 0
BBX 8 10 0 0
BITMAP
7E
42
42
42
42
42
42
42
42
7E
ENDCHAR
STARTCHAR U0237
ENCODING 567
SWIDTH 1000 0
DWIDTH 8 0
BBX 8 10 0 -3
BITMAP
3C
04
04
04
04
04
04
04
08
70
ENDCHAR
STARTCHAR U0238
ENCODING 568
SWIDTH 1000 0
DWIDTH 8 0
BBX 8 10 0 0
BITMAP
7E
42
42
42
42
42
42
42
42
7E
ENDCHAR
STARTCHAR U0239
ENCODING 569
SWIDTH 1000 0
DWIDTH 8 0
BBX 8 10 0 0
BITMAP
7E
42
42
42
42
42
42
42
42
7E
ENDCHAR
STARTCHAR U023A
ENCODING 570
SWIDTH 1000 0
DWIDTH 8 0
BBX 8 14 0 -2
BITMAP
04
04
1C
18
1C
2C
2C
2C
7E
52
52
51
10
10
ENDCHAR
STARTCHAR U023B
ENCODING 571
SWIDTH 1000 0
DWIDTH 8 0
BBX 8 14 0 -2
BITMAP
04
04
1E
24
44
48
48
48
48
48
28
1E
10
10
ENDCHAR
STARTCHAR U023C
ENCODING 572
SWIDTH 1000 0
DWIDTH 8 0
BBX 8 10 0 0
BITMAP
7E
42
42
42
42
42
42
42
42
7E
ENDCHAR
STARTCHAR U023D
ENCODING 573
SWIDTH 1000 0
DWIDTH 8 0
BBX 9 10 -1 0
BITMAP
4000
4000
4000
4000
F800
4000
4000
4000
4000
7E00
ENDCHAR
STARTCHAR U023E
ENCODING 574
SWIDTH 1000 0
DWIDTH 8 0
BBX 8 14 0 -2
BITMAP
02
02
7F
0C
0C
0C
08
08
08
18
18
18
20
20
ENDCHAR
STARTCHAR U023F
ENCODING 575
SWIDTH 1000 0
DWIDTH 8 0
BBX 8 10 0 0
BITMAP
7E
42
42
42
42
42
42
42
42
7E
ENDCHAR
STARTCHAR U0240
ENCODING 576
SWIDTH 1000 0
DWIDTH 8 0
BBX 8 10 0 0
BITMAP
7E
42
42
42
42
42
42
42
42
7E
ENDCHAR
STARTCHAR U0241
ENCODING 577
SWIDTH 1000 0
DWIDTH 8 0
BBX 8 10 0 0
BITMAP
7E
42
42
42
42
42
42
42
42
7E
ENDCHAR
STARTCHAR U0242
ENCODING 578
SWIDTH 1000 0
DWIDTH 8 0
BBX 8 10 0 0
BITMAP
7E
42
42
42
42
42
42
42
42
7E
ENDCHAR
STARTCHAR U0243
ENCODING 579
SWIDTH 1000 0
DWIDTH 8 0
BBX 8 10 0 0
BITMAP
7E
42
42
42
42
42
42
42
42
7E
ENDCHAR
STARTCHAR U0244
ENCODING 580
SWIDTH 1000 0
DWIDTH 8 0
BBX 8 10 0 0
BITMAP
7E
42
42
42
42
42
42
42
42
7E
ENDCHAR
STARTCHAR U0245
ENCODING 581
SWIDTH 1000 0
DWIDTH 8 0
BBX 8 10 0 0
BITMAP
18
18
14
24
24
24
42
42
42
41
ENDCHAR
STARTCHAR U0246
ENCODING 582
SWIDTH 1000 0
DWIDTH 8 0
BBX 8 10 0 0
BITMAP
7E
42
42
42
42
42
42
42
42
7E
ENDCHAR
STARTCHAR U0247
ENCODING 583
SWIDTH 1000 0
DWIDTH 8 0
BBX 8 10 0 0
BITMAP
7E
42
42
42
42
42
42
42
42
7E
ENDCHAR
STARTCHAR U0248
ENCODING 584
SWIDTH 1000 0
DWIDTH 8 0
BBX 8 10 0 0
BITMAP
7E
42
42
42
42
42
42
42
42
7E
ENDCHAR
STARTCHAR U0249
ENCODING 585
SWIDTH 1000 0
DWIDTH 8 0
BBX 8 10 0 0
BITMAP
7E
42
42
42
42
42
42
42
42
7E
ENDCHAR
STARTCHAR U024A
ENCODING 586
SWIDTH 1000 0
DWIDTH 8 0
BBX 8 10 0 0
BITMAP
7E
42
42
42
42
42
42
42
42
7E
ENDCHAR
STARTCHAR U024B
ENCODING 587
SWIDTH 1000 0
DWIDTH 8 0
BBX 8 10 0 0
BITMAP
7E
42
42
42
42
42
42
42
42
7E
ENDCHAR
STARTCHAR U024C
ENCODING 588
SWIDTH 1000 0
DWIDTH 8 0
BBX 8 10 0 0
BITMAP
7E
42
42
42
42
42
42
42
42
7E
ENDCHAR
STARTCHAR U024D
ENCODING 589
SWIDTH 1000 0
DWIDTH 8 0
BBX 8 10 0 0
BITMAP
7E
42
42
42
42
42
42
42
42
7E
ENDCHAR
STARTCHAR U024E
ENCODING 590
SWIDTH 1000 0
DWIDTH 8 0
BBX 8 10 0 0
BITMAP
7E
42
42
42
42
42
42
42
42
7E
ENDCHAR
STARTCHAR U024F
ENCODING 591
SWIDTH 1000 0
DWIDTH 8 0
BBX 8 10 0 0
BITMAP
7E
42
42
42
42
42
42
42
42
7E
ENDCHAR
STARTCHAR U1EA0
ENCODING 7840
SWIDTH 1000 0
DWIDTH 8 0
BBX 8 13 0 -3
BITMAP
18
18
14
24
24
24
7E
42
42
41
00
18
18
ENDCHAR
STARTCHAR U1EA1
ENCODING 7841
SWIDTH 1000 0
DWIDTH 8 0
BBX 8 10 0 -3
BITMAP
38
04
02
3E
42
46
7B
00
18
18
ENDCHAR
STARTCHAR U1EA2
ENCODING 7842
SWIDTH 1000 0
DWIDTH 8 0
BBX 8 14 0 0
BITMAP
18
04
08
00
18
18
14
24
24
24
7E
42
42
41
ENDCHAR
STARTCHAR U1EA3
ENCODING 7843
SWIDTH 1000 0
DWIDTH 8 0
BBX 8 12 0 -1
BITMAP
18
08
08
00
38
04
02
3E
42
46
7B
00
ENDCHAR
STARTCHAR U1EA4
ENCODING 7844
SWIDTH 1000 0
DWIDTH 8 0
BBX 9 15 0 0
BITMAP
0180
0100
1800
2400
0000
1800
1800
1400
2400
2400
2400
7E00
4200
4200
4100
ENDCHAR
STARTCHAR U1EA5
ENCODING 7845
SWIDTH 1000 0
DWIDTH 8 0
BBX 9 15 0 -1
BITMAP
0100
0100
0200
1800
1800
2400
0000
3800
0400
0200
3E00
4200
4600
7B00
0000
ENDCHAR
STARTCHAR U1EA6
ENCODING 7846
SWIDTH 1000 0
DWIDTH 8 0
BBX 8 15 0 0
BITMAP
04
06
18
24
00
18
18
14
24
24
24
7E
42
42
41
ENDCHAR
STARTCHAR U1EA7
ENCODING 7847
SWIDTH 1000 0
DWIDTH 8 0
BBX 8 15 0 -1
BITMAP
04
04
02
18
18
24
00
38
04
02
3E
42
46
7B
00
ENDCHAR
STARTCHAR U1EA8
ENCODING 7848
SWIDTH 1000 0
DWIDTH 8 0
BBX 8 16 0 0
BITMAP
06
01
02
18
24
00
18
18
14
24
24
24
7E
42
42
41
ENDCHAR
STARTCHAR U1EA9
ENCODING 7849
SWIDTH 1000 0
DWIDTH 8 0
BBX 8 15 0 -1
BITMAP
06
02
02
18
18
24
00
38
04
02
3E
42
46
7B
00
ENDCHAR
STARTCHAR U1EAA
ENCODING 7850
SWIDTH 1000 0
DWIDTH 8 0
BBX 8 17 0 0
BITMAP
32
4C
00
18
24
00
18
18
14
24
24
24
7E
42
42
41
00
ENDCHAR
STARTCHAR U1EAB
ENCODING 7851
SWIDTH 1000 0
DWIDTH 8 0
BBX 8 15 0 -1
BITMAP
32
2C
00
18
18
24
00
38
04
02
3E
42
46
7B
00
ENDCHAR
STARTCHAR U1EAC
ENCODING 7852
SWIDTH 1000 0
DWIDTH 8 0
BBX 8 16 0 -3
BITMAP
18
24
00
18
18
14
24
24
24
7E
42
42
41
00
18
18
ENDCHAR
STARTCHAR U1EAD
ENCODING 7853
SWIDTH 1000 0
DWIDTH 8 0
BBX 8 14 0 -3
BITMAP
18
18
24
00
38
04
02
3E
42
46
7B
00
18
18
ENDCHAR
STARTCHAR U1EAE
ENCODING 7854
SWIDTH 1000 0
DWIDTH 8 0
BBX 8 16 0 0
BITMAP
08
18
00
22
3C
00
18
18
14
24
24
24
7E
42
42
41
ENDCHAR
STARTCHAR U1EAF
ENCODING 7855
SWIDTH 1000 0
DWIDTH 8 0
BBX 8 16 0 -1
BITMAP
08
08
10
00
22
24
1C
00
38
04
02
3E
42
46
7B
00
ENDCHAR
STARTCHAR U1EB0
ENCODING 7856
SWIDTH 1000 0
DWIDTH 8 0
BBX 8 16 0 0
BITMAP
10
08
00
22
3C
00
18
18
14
24
24
24
7E
42
42
41
ENDCHAR
STARTCHAR U1EB1
ENCODING 7857
SWIDTH 1000 0
DWIDTH 8 0
BBX 8 16 0 -1
BITMAP
20
20
10
00
22
24
1C
00
38
04
02
3E
42
46
7B
00
ENDCHAR
STARTCHAR U1EB2
ENCODING 7858
SWIDTH 1000 0
DWIDTH 8 0
BBX 8 17 0 0
BITMAP
18
04
08
00
22
3C
00
18
18
14
24
24
24
7E
42
42
41
ENDCHAR
STARTCHAR U1EB3
ENCODING 7859
SWIDTH 1000 0
DWIDTH 8 0
BBX 8 16 0 -1
BITMAP
18
08
08
00
22
24
1C
00
38
04
02
3E
42
46
7B
00
ENDCHAR
STARTCHAR U1EB4
ENCODING 7860
SWIDTH 1000 0
DWIDTH 8 0
BBX 8 17 0 0
BITMAP
32
4C
00
22
3C
00
18
18
14
24
24
24
7E
42
42
41
00
ENDCHAR
STARTCHAR U1EB5
ENCODING 7861
SWIDTH 1000 0
DWIDTH 8 0
BBX 8 15 0 -1
BITMAP
32
2C
00
22
24
1C
00
38
04
02
3E
42
46
7B
00
ENDCHAR
STARTCHAR U1EB6
ENCODING 7862
SWIDTH 1000 0
DWIDTH 8 0
BBX 8 16 0 -3
BITMAP
22
3C
00
18
18
14
24
24
24
7E
42
42
41
00
18
18
ENDCHAR
STARTCHAR U1EB7
ENCODING 7863
SWIDTH 1000 0
DWIDTH 8 0
BBX 8 14 0 -3
BITMAP
22
24
1C
00
38
04
02
3E
42
46
7B
00
18
18
ENDCHAR
STARTCHAR U1EB8
ENCODING 7864
SWIDTH 1000 0
DWIDTH 8 0
BBX 8 13 0 -3
BITMAP
7E
40
40
40
7C
40
40
40
40
7E
00
18
18
ENDCHAR
STARTCHAR U1EB9
ENCODING 7865
SWIDTH 1000 0
DWIDTH 8 0
BBX 8 10 0 -3
BITMAP
3C
62
42
7E
40
60
1E
00
18
18
ENDCHAR
STARTCHAR U1EBA
ENCODING 7866
SWIDTH 1000 0
DWIDTH 8 0
BBX 8 14 0 0
BITMAP
18
04
08
00
7E
40
40
40
7C
40
40
40
40
7E
ENDCHAR
STARTCHAR U1EBB
ENCODING 7867
SWIDTH 1000 0
DWIDTH 8 0
BBX 8 11 0 0
BITMAP
18
08
08
00
3C
62
42
7E
40
60
1E
ENDCHAR
STARTCHAR U1EBC
ENCODING 7868
SWIDTH 1000 0
DWIDTH 8 0
BBX 8 14 0 0
BITMAP
32
4C
00
7E
40
40
40
7C
40
40
40
40
7E
00
ENDCHAR
STARTCHAR U1EBD
ENCODING 7869
SWIDTH 1000 0
DWIDTH 8 0
BBX 8 10 0 0
BITMAP
32
2C
00
3C
62
42
7E
40
60
1E
ENDCHAR
STARTCHAR U1EBE
ENCODING 7870
SWIDTH 1000 0
DWIDTH 8 0
BBX 9 15 0 0
BITMAP
0180
0100
1800
2400
0000
7E00
4000
4000
4000
7C00
4000
4000
4000
4000
7E00
ENDCHAR
STARTCHAR U1EBF
ENCODING 7871
SWIDTH 1000 0
DWIDTH 8 0
BBX 9 14 0 0
BITMAP
0100
0100
0200
1800
1800
2400
0000
3C00
6200
4200
7E00
4000
6000
1E00
ENDCHAR
STARTCHAR U1EC0
ENCODING 7872
SWIDTH 1000 0
DWIDTH 8 0
BBX 8 15 0 0
BITMAP
04
06
18
24
00
7E
40
40
40
7C
40
40
40
40
7E
ENDCHAR
STARTCHAR U1EC1
ENCODING 7873
SWIDTH 1000 0
DWIDTH 8 0
BBX 8 14 0 0
BITMAP
04
04
02
18
18
24
00
3C
62
42
7E
40
60
1E
ENDCHAR
STARTCHAR U1EC2
ENCODING 7874
SWIDTH 1000 0
DWIDTH 8 0
BBX 8 16 0 0
BITMAP
06
01
02
18
24
00
7E
40
40
40
7C
40
40
40
40
7E
ENDCHAR
STARTCHAR U1EC3
ENCODING 7875
SWIDTH 1000 0
DWIDTH 8 0
BBX 9 14 0 0
BITMAP
0300
0100
0100
1800
1800
2400
0000
3C00
6200
4200
7E00
4000
6000
1E00
ENDCHAR
STARTCHAR U1EC4
ENCODING 7876
SWIDTH 1000 0
DWIDTH 8 0
BBX 8 17 0 0
BITMAP
32
4C
00
18
24
00
7E
40
40
40
7C
40
40
40
40
7E
00
ENDCHAR
STARTCHAR U1EC5
ENCODING 7877
SWIDTH 1000 0
DWIDTH 8 0
BBX 8 14 0 0
BITMAP
32
2C
00
18
18
24
00
3C
62
42
7E
40
60
1E
ENDCHAR
STARTCHAR U1EC6
ENCODING 7878
SWIDTH 1000 0
DWIDTH 8 0
BBX 8 16 0 -3
BITMAP
18
24
00
7E
40
40
40
7C
40
40
40
40
7E
00
18
18
ENDCHAR
STARTCHAR U1EC7
ENCODING 7879
SWIDTH 1000 0
DWIDTH 8 0
BBX 8 14 0 -3
BITMAP
18
18
24
00
3C
62
42
7E
40
60
1E
00
18
18
ENDCHAR
STARTCHAR U1EC8
ENCODING 7880
SWIDTH 1000 0
DWIDTH 8 0
BBX 8 14 0 0
BITMAP
18
04
08
00
7E
08
08
08
08
08
08
08
08
7E
ENDCHAR
STARTCHAR U1EC9
ENCODING 7881
SWIDTH 1000 0
DWIDTH 8 0
BBX 8 11 0 0
BITMAP
18
08
08
00
38
08
08
08
08
08
7E
ENDCHAR
STARTCHAR U1ECA
ENCODING 7882
SWIDTH 1000 0
DWIDTH 8 0
BBX 8 13 0 -3
BITMAP
7E
08
08
08
08
08
08
08
08
7E
00
18
18
ENDCHAR
STARTCHAR U1ECB
ENCODING 7883
SWIDTH 1000 0
DWIDTH 8 0
BBX 8 14 0 -3
BITMAP
08
08
00
00
38
08
08
08
08
08
7E
00
18
18
ENDCHAR
STARTCHAR U1ECC
ENCODING 7884
SWIDTH 1000 0
DWIDTH 8 0
BBX 8 13 0 -3
BITMAP
3C
62
42
41
41
41
41
42
62
3C
00
18
18
ENDCHAR
STARTCHAR U1ECD
ENCODING 7885
SWIDTH 1000 0
DWIDTH 8 0
BBX 8 10 0 -3
BITMAP
3C
62
42
42
42
62
3C
00
18
18
ENDCHAR
STARTCHAR U1ECE
ENCODING 7886
SWIDTH 1000 0
DWIDTH 8 0
BBX 8 14 0 0
BITMAP
18
04
08
00
3C
62
42
41
41
41
41
42
62
3C
ENDCHAR
STARTCHAR U1ECF
ENCODING 7887
SWIDTH 1000 0
DWIDTH 8 0
BBX 8 11 0 0
BITMAP
18
08
08
00
3C
62
42
42
42
62
3C
ENDCHAR
STARTCHAR U1ED0
ENCODING 7888
SWIDTH 1000 0
DWIDTH 8 0
BBX 9 15 0 0
BITMAP
0180
0100
1800
2400
0000
3C00
6200
4200
4100
4100
4100
4100
4200
6200
3C00
ENDCHAR
STARTCHAR U1ED1
ENCODING 7889
SWIDTH 1000 0
DWIDTH 8 0
BBX 9 14 0 0
BITMAP
0100
0100
0200
1800
1800
2400
0000
3C00
6200
4200
4200
4200
6200
3C00
ENDCHAR
STARTCHAR U1ED2
ENCODING 7890
SWIDTH 1000 0
DWIDTH 8 0
BBX 8 15 0 0
BITMAP
04
06
18
24
00
3C
62
42
41
41
41
41
42
62
3C
ENDCHAR
STARTCHAR U1ED3
ENCODING 7891
SWIDTH 1000 0
DWIDTH 8 0
BBX 8 14 0 0
BITMAP
04
04
02
18
18
24
00
3C
62
42
42
42
62
3C
ENDCHAR
STARTCHAR U1ED4
ENCODING 7892
SWIDTH 1000 0
DWIDTH 8 0
BBX 8 16 0 0
BITMAP
06
01
02
18
24
00
3C
62
42
41
41
41
41
42
62
3C
ENDCHAR
STARTCHAR U1ED5
ENCODING 7893
SWIDTH 1000 0
DWIDTH 8 0
BBX 9 14 0 0
BITMAP
0300
0100
0100
1800
1800
2400
0000
3C00
6200
4200
4200
4200
6200
3C00
ENDCHAR
STARTCHAR U1ED6
ENCODING 7894
SWIDTH 1000 0
DWIDTH 8 0
BBX 8 17 0 0
BITMAP
32
4C
00
18
24
00
3C
62
42
41
41
41
41
42
62
3C
00
ENDCHAR
STARTCHAR U1ED7
ENCODING 7895
SWIDTH 1000 0
DWIDTH 8 0
BBX 8 14 0 0
BITMAP
32
2C
00
18
18
24
00
3C
62
42
42
42
62
3C
ENDCHAR
STARTCHAR U1ED8
ENCODING 7896
SWIDTH 1000 0
DWIDTH 8 0
BBX 8 16 0 -3
BITMAP
18
24
00
3C
62
42
41
41
41
41
42
62
3C
00
18
18
ENDCHAR
STARTCHAR U1ED9
ENCODING 7897
SWIDTH 1000 0
DWIDTH 8 0
BBX 8 14 0 -3
BITMAP
18
18
24
00
3C
62
42
42
42
62
3C
00
18
18
ENDCHAR
STARTCHAR U1EDA
ENCODING 7898
SWIDTH 1000 0
DWIDTH 8 0
BBX 9 13 0 0
BITMAP
0800
1800
0080
3D00
6300
4200
4100
4100
4100
4100
4200
6200
3C00
ENDCHAR
STARTCHAR U1EDB
ENCODING 7899
SWIDTH 1000 0
DWIDTH 8 0
BBX 8 11 0 0
BITMAP
04
04
09
02
3E
62
42
42
42
62
3C
ENDCHAR
STARTCHAR U1EDC
ENCODING 7900
SWIDTH 1000 0
DWIDTH 8 0
BBX 9 13 0 0
BITMAP
1000
0800
0080
3D00
6300
4200
4100
4100
4100
4100
4200
6200
3C00
ENDCHAR
STARTCHAR U1EDD
ENCODING 7901
SWIDTH 1000 0
DWIDTH 8 0
BBX 8 11 0 0
BITMAP
10
10
09
02
3E
62
42
42
42
62
3C
ENDCHAR
STARTCHAR U1EDE
ENCODING 7902
SWIDTH 1000 0
DWIDTH 8 0
BBX 9 14 0 0
BITMAP
1800
0400
0800
0080
3D00
6300
4200
4100
4100
4100
4100
4200
6200
3C00
ENDCHAR
STARTCHAR U1EDF
ENCODING 7903
SWIDTH 1000 0
DWIDTH 8 0
BBX 8 11 0 0
BITMAP
18
08
09
02
3E
62
42
42
42
62
3C
ENDCHAR
STARTCHAR U1EE0
ENCODING 7904
SWIDTH 1000 0
DWIDTH 8 0
BBX 9 14 0 0
BITMAP
3200
4C00
0080
3D00
6300
4200
4100
4100
4100
4100
4200
6200
3C00
0000
ENDCHAR
STARTCHAR U1EE1
ENCODING 7905
SWIDTH 1000 0
DWIDTH 8 0
BBX 8 10 0 0
BITMAP
32
2D
02
3E
62
42
42
42
62
3C
ENDCHAR
STARTCHAR U1EE2
ENCODING 7906
SWIDTH 1000 0
DWIDTH 8 0
BBX 9 14 0 -3
BITMAP
0080
3D00
6300
4200
4100
4100
4100
4100
4200
6200
3C00
0000
1800
1800
ENDCHAR
STARTCHAR U1EE3
ENCODING 7907
SWIDTH 1000 0
DWIDTH 8 0
BBX 8 12 0 -3
BITMAP
01
02
3E
62
42
42
42
62
3C
00
18
18
ENDCHAR
STARTCHAR U1EE4
ENCODING 7908
SWIDTH 1000 0
DWIDTH 8 0
BBX 8 13 0 -3
BITMAP
42
42
42
42
42
42
42
42
62
3C
00
18
18
ENDCHAR
STARTCHAR U1EE5
ENCODING 7909
SWIDTH 1000 0
DWIDTH 8 0
BBX 8 10 0 -3
BITMAP
42
42
42
42
42
46
3B
00
18
18
ENDCHAR
STARTCHAR U1EE6
ENCODING 7910
SWIDTH 1000 0
DWIDTH 8 0
BBX 8 14 0 0
BITMAP
18
04
08
00
42
42
42
42
42
42
42
42
62
3C
ENDCHAR
STARTCHAR U1EE7
ENCODING 7911
SWIDTH 1000 0
DWIDTH 8 0
BBX 8 12 0 -1
BITMAP
18
08
08
00
42
42
42
42
42
46
3B
00
ENDCHAR
STARTCHAR U1EE8
ENCODING 7912
SWIDTH 1000 0
DWIDTH 8 0
BBX 9 13 0 0
BITMAP
0800
1880
0180
4300
4200
4200
4200
4200
4200
4200
4200
6200
3C00
ENDCHAR
STARTCHAR U1EE9
ENCODING 7913
SWIDTH 1000 0
DWIDTH 8 0
BBX 9 12 0 -1
BITMAP
0800
0800
1100
0100
4200
4200
4200
4200
4200
4600
3B00
0000
ENDCHAR
STARTCHAR U1EEA
ENCODING 7914
SWIDTH 1000 0
DWIDTH 8 0
BBX 9 13 0 0
BITMAP
1000
0880
0180
4300
4200
4200
4200
4200
4200
4200
4200
6200
3C00
ENDCHAR
STARTCHAR U1EEB
ENCODING 7915
SWIDTH 1000 0
DWIDTH 8 0
BBX 9 12 0 -1
BITMAP
2000
2000
1100
0100
4200
4200
4200
4200
4200
4600
3B00
0000
ENDCHAR
STARTCHAR U1EEC
ENCODING 7916
SWIDTH 1000 0
DWIDTH 8 0
BBX 9 14 0 0
BITMAP
1800
0400
0880
0180
4300
4200
4200
4200
4200
4200
4200
4200
6200
3C00
ENDCHAR
STARTCHAR U1EED
ENCODING 7917
SWIDTH 1000 0
DWIDTH 8 0
BBX 9 12 0 -1
BITMAP
1800
0800
0900
0100
4200
4200
4200
4200
4200
4600
3B00
0000
ENDCHAR
STARTCHAR U1EEE
ENCODING 7918
SWIDTH 1000 0
DWIDTH 8 0
BBX 9 14 0 0
BITMAP
3200
4C80
0180
4300
4200
4200
4200
4200
4200
4200
4200
6200
3C00
0000
ENDCHAR
STARTCHAR U1EEF
ENCODING 7919
SWIDTH 1000 0
DWIDTH 8 0
BBX 9 11 0 -1
BITMAP
3200
2D00
0100
4200
4200
4200
4200
4200
4600
3B00
0000
ENDCHAR
STARTCHAR U1EF0
ENCODING 7920
SWIDTH 1000 0
DWIDTH 8 0
BBX 9 15 0 -3
BITMAP
0080
0180
4300
4200
4200
4200
4200
4200
4200
4200
6200
3C00
0000
1800
1800
ENDCHAR
STARTCHAR U1EF1
ENCODING 7921
SWIDTH 1000 0
DWIDTH 8 0
BBX 9 12 0 -3
BITMAP
0100
0100
4200
4200
4200
4200
4200
4600
3B00
0000
1800
1800
ENDCHAR
STARTCHAR U1EF2
ENCODING 7922
SWIDTH 1000 0
DWIDTH 8 0
BBX 8 13 0 0
BITMAP
10
08
00
41
42
22
24
14
18
08
08
08
08
ENDCHAR
STARTCHAR U1EF3
ENCODING 7923
SWIDTH 1000 0
DWIDTH 8 0
BBX 8 14 0 -3
BITMAP
10
10
08
00
42
42
22
24
24
18
18
10
30
60
ENDCHAR
STARTCHAR U1EF4
ENCODING 7924
SWIDTH 1000 0
DWIDTH 8 0
BBX 8 13 0 -3
BITMAP
41
42
22
24
14
18
08
08
08
08
00
18
18
ENDCHAR
STARTCHAR U1EF5
ENCODING 7925
SWIDTH 1000 0
DWIDTH 8 0
BBX 8 10 0 -3
BITMAP
42
42
22
24
24
18
18
16
36
60
ENDCHAR
STARTCHAR U1EF6
ENCODING 7926
SWIDTH 1000 0
DWIDTH 8 0
BBX 8 14 0 0
BITMAP
18
04
08
00
41
42
22
24
14
18
08
08
08
08
ENDCHAR
STARTCHAR U1EF7
ENCODING 7927
SWIDTH 1000 0
DWIDTH 8 0
BBX 8 14 0 -3
BITMAP
18
08
08
00
42
42
22
24
24
18
18
10
30
60
ENDCHAR
STARTCHAR U1EF8
ENCODING 7928
SWIDTH 1000 0
DWIDTH 8 0
BBX 8 14 0 0
BITMAP
32
4C
00
41
42
22
24
14
18
08
08
08
08
00
ENDCHAR
STARTCHAR U1EF9
ENCODING 7929
SWIDTH 1000 0
DWIDTH 8 0
BBX 8 13 0 -3
BITMAP
32
2C
00
42
42
22
24
24
18
18
10
30
60
ENDCHAR
ENDFONT
